<svg xmlns="http://www.w3.org/2000/svg" xmlns:xlink="http://www.w3.org/1999/xlink" viewBox="0 0 1107.13 826"><defs><style>.cls-1{opacity:0.9;}.cls-2{fill:#1bb1dc;}.cls-12,.cls-17,.cls-2,.cls-4{opacity:0.1;}.cls-11,.cls-12,.cls-2,.cls-21,.cls-28,.cls-30,.cls-4{isolation:isolate;}.cls-3{fill:#3f3d56;}.cls-5{fill:#fbbebe;}.cls-6{fill:#65617d;}.cls-7{fill:#39ff74;}.cls-8{fill:#44ff67;}.cls-9{fill:#11ff2e;}.cls-10{fill:#b2b1bb;}.cls-11,.cls-16{opacity:0.2;}.cls-12{fill:#ccc;}.cls-13{fill:#464353;}.cls-14{fill:#333f4f;}.cls-15{fill:#2d394a;stroke:#40868e;}.cls-15,.cls-28{stroke-miterlimit:10;}.cls-18{fill:url(#linear-gradient);}.cls-19{fill:#514e7f;}.cls-20{fill:#56ff6e;}.cls-21{opacity:0.15;}.cls-22{fill:#5fffa1;}.cls-23{fill:#945b79;}.cls-24{fill:#ffc1c7;}.cls-25{fill:#52ff6e;}.cls-26{fill:#ff6584;}.cls-27{fill:#17ff62;}.cls-28,.cls-57{fill:none;}.cls-28{stroke:#000;stroke-width:0.75px;stroke-dasharray:12;opacity:0.3;}.cls-29{fill:#002b7d;}.cls-30{fill:#0dff19;opacity:0.5;}.cls-31{fill:#6a4712;}.cls-32{fill:#e8e3e0;}.cls-33{fill:#25b713;}.cls-34{fill:#1fb636;}.cls-35{fill:#2e6249;}.cls-36{fill:#d9985c;}.cls-37{fill:#060d00;}.cls-38{fill:#565656;}.cls-39{fill:#c4c2c2;}.cls-40{fill:#fff;}.cls-41{font-size:2.91px;fill:#1d5b1d;font-family:MyriadPro-Regular, Myriad Pro;}.cls-42{letter-spacing:-0.61em;}.cls-43{letter-spacing:-0.64em;}.cls-44{letter-spacing:-0.55em;}.cls-45{letter-spacing:-1em;}.cls-46{letter-spacing:-0.86em;}.cls-47{letter-spacing:-1em;}.cls-48{fill:#d5985b;}.cls-49{fill:#ce9760;}.cls-50{fill:#ab7036;}.cls-51{fill:#b1724f;}.cls-52{fill:#805707;}.cls-53{fill:#784c29;}.cls-54{fill:#764b26;}.cls-55{fill:#ae843d;}.cls-56{fill:#3a3a3a;opacity:0.82;}.cls-58{fill:#ffd241;}.cls-59{fill:#a2622a;}.cls-60{fill:#a56b37;}.cls-61{fill:#c4bdb9;}.cls-62{fill:#ae7b43;}.cls-63{fill:#074015;}.cls-64{fill:#05441a;}.cls-65{fill:#054819;}.cls-66{fill:#024c03;}.cls-67{fill:#0a410f;}.cls-68{fill:#6b4120;}.cls-69{fill:#78341f;}.cls-70{fill:#c58246;}.cls-71{fill:#533500;}.cls-72{fill:#5b3d14;}.cls-73{fill:#15511c;}</style><linearGradient id="linear-gradient" x1="493.19" y1="2021.8" x2="493.19" y2="1465.1" gradientTransform="translate(-39.48 -1170.1)" gradientUnits="userSpaceOnUse"><stop offset="0" stop-color="gray" stop-opacity="0.25"/><stop offset="0.54" stop-color="gray" stop-opacity="0.12"/><stop offset="1" stop-color="gray" stop-opacity="0.1"/></linearGradient></defs><title>intro-img1</title><g id="_813c2686-e70f-4fb0-bf6b-a2eb7b1db384" data-name="813c2686-e70f-4fb0-bf6b-a2eb7b1db384"><g class="cls-1"><path class="cls-2" d="M1119.8,402.7v.2c0,.3-.1.6-.1.9-.4,2.4-.8,4.7-1.3,7.1-3.6,16.2-11,32.2-20.9,46.7-.4.6-.8,1.1-1.2,1.7-.8,1.1-1.5,2.2-2.3,3.2-.6.7-1.1,1.5-1.7,2.2a189.56,189.56,0,0,1-12.5,14.4c-2.4,2.5-5,4.8-7.5,7.1l-1.1,1c-1.4,1.2-2.8,2.4-4.2,3.5l-1.8,1.5-1.1.8-.8.6-2.1,1.5-.5.3c-1.7,1.2-3.3,2.3-5.1,3.5a114.22,114.22,0,0,1-11.3,6.5c-1.8.9-3.6,1.8-5.4,2.6-2.2,1-4.4,1.9-6.7,2.7a13.36,13.36,0,0,0-1.8.7c-1.7.6-3.4,1.1-5.2,1.6l-.9.3-.4.1h0l-1.1.3a139.57,139.57,0,0,1-15.6,3.3l-.9.1-.4.1a195.43,195.43,0,0,1-20,1.8,252.27,252.27,0,0,1-27.5,0l-2.5-.2h-.5c-1.7-.1-3.5-.3-5.2-.5l-3-.3-4.5-.6h-.1l-1.5-.2c-1.3-.2-2.6-.4-3.9-.7l-1.3-.2-2-.4-.4-.1a123.47,123.47,0,0,1-12.3-3.3l-.9-.3c-2.9-1-5.8-2.1-8.6-3.3-2.1-.9-4.1-1.9-6.2-2.9-2.9-1.5-5.7-3-8.4-4.7-3.8-2.3-7.5-4.9-11.1-7.6-4.7-3.5-9.2-7.3-13.6-11.2l-.9-.8-1.7-1.5a268.17,268.17,0,0,1-56.1-71.4c-1.5-2.8-3-5.7-4.4-8.7-.4-.9-.9-1.8-1.3-2.7,0-.1-.1-.1-.1-.2l-.7-1.4c-1.8-3.9-3.5-7.9-5.1-11.9l-.7-1.8-1.1-2.9-.5-1.2q-2.1-5.55-3.9-11.4c-.2-.7-.4-1.3-.6-2l-1.8-6.3c-.5-1.9-1-3.9-1.5-5.9a2.92,2.92,0,0,1-.2-.9c-4-16.9-5.7-35.1-1.7-53.6.3-1.3.6-2.5.9-3.8.5-1.9,1-3.7,1.7-5.6.1-.4.3-.9.4-1.3l.2-.5c0-.1.1-.2.1-.3s.1-.1.1-.2c.3-.9.7-1.8,1.1-2.8s.8-1.9,1.2-2.8h0l.1-.1c0-.1.1-.2.2-.4.3-.7.7-1.4,1-2.1l.4-.7.1-.4a10.92,10.92,0,0,1,.6-1.1,89,89,0,0,1,9.7-14.7c2.1-2.5,4.3-5,6.6-7.3a69.58,69.58,0,0,1,11.6-9.3c.7-.4,1.3-.8,1.9-1.2a48.51,48.51,0,0,1,17.4-6.3c7.9-1.1,15.4.2,22.6,1.9l.7.2c1.2.3,2.4.6,3.7.9,4.2,1.1,8.5,2.2,12.8,3.1,4,.9,8,1.6,12.1,2.2a88.14,88.14,0,0,0,12.5.7,12.1,12.1,0,0,0,1.9-.1,69.82,69.82,0,0,0,22.5-4.9,42.42,42.42,0,0,0,14.6-9.7,28.48,28.48,0,0,0,2.3-2.6h0a32.65,32.65,0,0,0,3.2-5c.3-.5.5-1.1.8-1.6h0l.3-.6h0l1.5-3h0c.1-.1.1-.2.2-.3.7-1.4,1.5-2.8,2.2-4.2a82.47,82.47,0,0,1,10.8-15.9h0a44.07,44.07,0,0,1,16.1-11.5c1-.4,2-.8,3.1-1.2a47.58,47.58,0,0,1,14.5-2.6h1.7a47,47,0,0,1,14.4,2.6h0a73.19,73.19,0,0,1,19.8,10.3,134.12,134.12,0,0,1,24.8,22.8c.6.7,1.2,1.4,1.7,2.1a175.77,175.77,0,0,1,16.6,24.5c14.5,25.6,23.9,55.6,30.8,86.2l.3,1.5c.2.7.3,1.4.5,2.1.3,1.5.6,3,.9,4.4.2,1.1.5,2.2.7,3.3h0c.2.8.3,1.6.5,2.4l.3,1.5a227.85,227.85,0,0,1,3.6,24.8,2.77,2.77,0,0,0,.1.9A135.36,135.36,0,0,1,1119.8,402.7Z" transform="translate(-13.92 -26)"/><path class="cls-3" d="M1046.9,484c-1.1-.3-3,1-5.4,3.1q-1.8,1.5-3.9,3.6l-.7.7-.3.3c-1.9,1.8-3.9,3.8-6.1,5.8-1.4,1.3-2.8,2.5-4.2,3.8-1.9,1.7-3,6.2-3.5,12.4a139.57,139.57,0,0,1-15.6,3.3l-.9.1-.4.1c-.3-1.9-.5-3.1-.5-3.1s-9-7.5-6.4-16.9c1.5-5.4,16.3-15.5,28.6-23.1,1.5-.9,3-1.8,4.4-2.7l.9-.5c.6-.3,1.1-.7,1.7-1l4.1-2.4,5.6-3.2.3-.2C1044.4,464.1,1049.7,484.7,1046.9,484Z" transform="translate(-13.92 -26)"/><path class="cls-4" d="M1046.9,484c-1.1-.3-3,1-5.4,3.1q-1.8,1.5-3.9,3.6l-.7.7-.3.3c-1.9,1.8-3.9,3.8-6.1,5.8-1.4,1.3-2.8,2.5-4.2,3.8-1.9,1.7-3,6.2-3.5,12.4a139.57,139.57,0,0,1-15.6,3.3l-.9.1-.4.1c-.3-1.9-.5-3.1-.5-3.1s-9-7.5-6.4-16.9c1.5-5.4,16.3-15.5,28.6-23.1,1.5-.9,3-1.8,4.4-2.7l.9-.5c.6-.3,1.1-.7,1.7-1l4.1-2.4,5.6-3.2.3-.2C1044.4,464.1,1049.7,484.7,1046.9,484Z" transform="translate(-13.92 -26)"/><path class="cls-3" d="M1044.7,472.7s-1.8,1.9-4.7,4.9c-1.2,1.3-2.6,2.7-4.1,4.3l-.1.1-.8.8-5.7,6c-10.2,10.9-21.8,23.8-21.8,25.8a5.45,5.45,0,0,1-.5,2.2l-.9.1-.4.1a195.43,195.43,0,0,1-20,1.8,252.27,252.27,0,0,1-27.5,0l-2.5-.2h-.5c-1.7-.1-3.5-.3-5.2-.5l-3-.3c1.2-1.6,2.4-3.4,3.6-5.1,2.5-3.5,4.9-7.2,6.9-10.5l.3-.6c1.2-2,2.3-3.9,3.1-5.5a14.8,14.8,0,0,0,1.6-4.6,27,27,0,0,1,1.8-5.7c4.4-11.2,15.9-34,22.4-46.6l.6-1.1.6-1.1c2.1-4,3.4-6.6,3.4-6.6l15.8-4.3,1-.3,3.5-.9,1.3-.4,7.4-2h.1l.3-.1,7.9-2.1,2.6-.7,3-.8,7.6,13,2.2,32.3Z" transform="translate(-13.92 -26)"/><path class="cls-4" d="M937.3,516.3c-3.1-4-4.9-6.5-4.9-6.5s4.4-1.1,10.1-2.7c2.9-.8,6.2-1.8,9.4-2.8,2-.7,4-1.4,5.9-2.1,1-.4,1.9-.7,2.8-1.1,4.1-1.7,7.3-3.5,7.9-5.1a3.13,3.13,0,0,0-.2-1.9,47.66,47.66,0,0,0-3.7-8.3c-.5-1-1.1-2.1-1.7-3.2-2-3.6-4.4-7.8-7-12.2q-3.3-5.55-6.9-11.4c-2.1-3.4-4.2-6.8-6.3-10.1-.1-.1-.1-.2-.2-.3-9.5-15.1-18.1-28-18.4-28.5h0l-5.6,13.5-.2.2L909,442l-.2.2c-2.9,2.5-6.2,5.5-9.5,8.5-2.5,2.2-5,4.5-7.3,6.6-3.4,3.1-6.6,6-9.2,8.3a70.49,70.49,0,0,0-6.2,6,61,61,0,0,0-4,10.8c4.4,3.9,8.9,7.7,13.6,11.2q5.4,4.05,11.1,7.5a86,86,0,0,0,8.4,4.7c2,1,4.1,2,6.2,2.9,2.8,1.2,5.7,2.3,8.6,3.3l.9.3a123.45,123.45,0,0,0,12.3,3.3l.4.1,2,.4Z" transform="translate(-13.92 -26)"/><path class="cls-3" d="M1014,421.5l-.9,1.4c-.4.6-.8,1.3-1.4,2.2s-1.4,2.1-2.2,3.5l-.6,1c-1.5,2.3-3.2,4.9-5,7.8-.2.4-.5.7-.7,1.1s-.5.7-.7,1.1c-12,18.8-29.7,46.7-34.2,54.7a11.4,11.4,0,0,0-1,1.9c-.6,1.4-3.1,3-6.7,4.6-.8.4-1.6.7-2.5,1.1-1.9.8-4.1,1.5-6.2,2.3-3.2,1.1-6.4,2-9.4,2.9-6.3,1.8-11.2,3-11.2,3s1.7,2.3,4.7,6.2l-2-.4-.4-.1a123.47,123.47,0,0,1-12.3-3.3l-.9-.3c-2.9-1-5.8-2.1-8.6-3.3-2.1-.9-4.1-1.9-6.2-2.9-2.9-1.5-5.7-3-8.4-4.7-3.8-2.3-7.5-4.9-11.1-7.6-4.7-3.5-9.2-7.3-13.6-11.2l-.9-.8a71,71,0,0,1,3.8-10,89.39,89.39,0,0,1,7.2-6.9c2.7-2.4,5.8-5.3,9.2-8.3l7.3-6.6,8.7-7.8.2-.2,9-8,.2-.2,5.6-13.5h1.1l20.5.3h3.2l6.4.1,7.6.1,8.9.1,34.9.5h1.1l6.6.1Z" transform="translate(-13.92 -26)"/><path class="cls-5" d="M1014.6,282.2l-3.4,30.7s-34.6,13.8-35.5,13.5-23.1-20.3-19.4-33.5c1.8-6.6,2.7-15.8,3.1-23.3s.3-13.3.3-13.3,50.4-18,45.9-5.6c-1.6,4.5-.9,9.9.7,14.9A69.7,69.7,0,0,0,1014.6,282.2Z" transform="translate(-13.92 -26)"/><path class="cls-4" d="M1006.3,265.6a9,9,0,0,1-.9,1,33.75,33.75,0,0,1-46,2.9c.4-7.5.3-13.3.3-13.3s50.4-18,45.9-5.6C1004,255.1,1004.7,260.5,1006.3,265.6Z" transform="translate(-13.92 -26)"/><path class="cls-5" d="M1014.6,242.3a33.55,33.55,0,1,1,0-.5Z" transform="translate(-13.92 -26)"/><path class="cls-4" d="M972.9,314s-13.2-29.3-17.7-29.3-11.5,151.6-11.5,151.6l69,1.1,2.8-79.6-14.1-70.6S988.7,315.1,972.9,314Z" transform="translate(-13.92 -26)"/><path class="cls-4" d="M972.9,316.3S959.7,287,955.2,287s-11.5,151.7-11.5,151.7l78.3,1.2-6.5-79.7-14.1-70.6C1001.4,289.5,988.7,317.4,972.9,316.3Z" transform="translate(-13.92 -26)"/><path class="cls-6" d="M972.9,315.1s-13.2-29.3-17.7-29.3-11.5,151.6-11.5,151.6l78.3,1.2-6.5-79.8-14.1-70.6C1001.4,288.3,988.7,316.2,972.9,315.1Z" transform="translate(-13.92 -26)"/><path class="cls-4" d="M960.1,276.6s-2.4-3.5-5.7-2.3-5.9-2-9.3,1.1-16.9,7.3-19.4,5.9-11.5,4.8-13.5,8.5-8.5,13.5-8.5,13.5-5.6,6.8-4.8,10.4-2,7.9-5.3,9.6-10.1,18.6-10.1,18.6,1.8,22.6-5.8,26.5-2,21.1-2,21.1l35.9-8.5,10.2-23.1s-3.9,67.5-8.7,73.7-5.3,10.1-5.3,10.1,18.6,3.9,22.5,7.3,14.4-.8,14.4-.8l10.1-89.8s3.7-16.9,3.7-25.6S960.1,276.6,960.1,276.6Z" transform="translate(-13.92 -26)"/><path class="cls-7" d="M959,276.6s-2.4-3.5-5.8-2.3-5.9-2-9.3,1.1-16.9,7.3-19.4,5.9-11.5,4.8-13.5,8.5-8.4,13.5-8.4,13.5-5.6,6.8-4.8,10.4-2,7.9-5.3,9.6-10.1,18.6-10.1,18.6,1.8,22.6-5.8,26.5c-1.9,1-3,3.2-3.5,5.9-2.2,11,6.9,21.1,18.1,20.8l19.3-8,10.1-29.2s-3.9,67.5-8.7,73.7-5.3,10.1-5.3,10.1,18.6,3.9,22.5,7.3,14.3-.8,14.3-.8l10.1-89.8s3.7-16.9,3.7-25.6S959,276.6,959,276.6Z" transform="translate(-13.92 -26)"/><path class="cls-4" d="M896.9,325.5s3.4,9.3,12.7,8.5S896.9,325.5,896.9,325.5Z" transform="translate(-13.92 -26)"/><path class="cls-4" d="M906,311.4s6.2,1.1,8.4,6.5S906,311.4,906,311.4Z" transform="translate(-13.92 -26)"/><path class="cls-4" d="M923.4,301.9c0,1.1,3.9,20.8,0,29s-3.4,17.7-3.4,17.7Z" transform="translate(-13.92 -26)"/><path class="cls-4" d="M1006.5,269.8s2.2-2.6,4.5-2.3,3.7,1.7,6.5,2.8,9.6,1.4,9.6,2.3,5.9,4.2,9.9,5.1,16.3,9.3,19.4,25.6,8.4,21.1,8.4,21.1L1035,339s23.1,98,25.9,105,3.1,48.7,3.1,48.7-18.3,8.2-23.1,10.7-2.8-24.2-12.7-39.7-21.1-38-21.1-38l-17.2-48.1s-11-64.2-1.7-76S1007.3,274.1,1006.5,269.8Z" transform="translate(-13.92 -26)"/><path class="cls-8" d="M1065,492.1v.6l-1.1.5-.8.3-7.6,3.5c-4.2,1.9-8.8,4-11.7,5.5-.7.3-1.3.7-1.8.9a1.08,1.08,0,0,1-1.1,0c-1.5-1-2.2-6.1-3.2-12.7-.4-2.7-.9-5.7-1.6-8.8-.1-.5-.2-1-.3-1.4a62.58,62.58,0,0,0-2.9-9.6,36.05,36.05,0,0,0-3.5-7.1c-1.3-2-2.6-4.2-3.9-6.4-3.5-5.9-7-12.2-9.9-17.6a10.92,10.92,0,0,0-.6-1.1q-1.05-2.1-2.1-3.9c-1.3-2.5-2.4-4.6-3.2-6.2l-1.3-2.5c0-.1-.1-.2-.1-.3l-1.6-4.3-3-8.4-3.5-9.8-1.7-4.6-1.2-3.4-.4-1.1L991,377.6s-.4-2.4-1-6.4c-1.6-10.4-4.4-31.7-4.4-48.3a97.07,97.07,0,0,1,.7-12.1c.1-.4.1-.9.2-1.3s.2-.9.3-1.4a15.37,15.37,0,0,1,2.6-6.5c9.3-11.8,19.2-27.5,18.3-31.7l.2-.2a17.42,17.42,0,0,1,1.4-1.2,7.22,7.22,0,0,1,2-.9h.9c2.3.3,3.7,1.7,6.5,2.8s9.6,1.4,9.6,2.3,5.9,4.2,9.8,5.1,16.3,9.3,19.4,25.6c3,15.7,8.1,20.7,8.4,21.1h0l-1.1.5-16.9,8.3-3.6,1.8-8.2,4s2.1,9.1,5.2,21.9a4.33,4.33,0,0,0,.1.5l.3,1.2c2.2,9.4,4.9,20.6,7.6,31.6h0l.2,1,.8,3.2c.2,1,.5,2,.7,3l.4,1.6c.7,3.1,1.5,6.1,2.2,9,1.1,4.3,2.1,8.4,3,12.2,2.6,10.4,4.6,18,5.3,19.7,1,2.6,1.7,9.8,2.2,18C1064.8,474.5,1064.9,489.1,1065,492.1Z" transform="translate(-13.92 -26)"/><path class="cls-4" d="M1068.6,393.1c-.8.1-1.9.3-3.1.4-9,.8-26.7,1-26.7,1s-13.2-26.2-24.5-25.3c0,0,10.4-11.8,14.6-10.4.7.2,1.1-.3,1.4-1.3,1.1-5-2.8-22.4-2.8-22.4l-5.3-23.4,31,7.6c2.8.6,11.5,5.1,11.5,5.1s.3,12.1,2.5,14.9,4.8,16.3,4.5,19.7,3.1,19.1-.3,23.4S1075.7,391.9,1068.6,393.1Z" transform="translate(-13.92 -26)"/><path class="cls-9" d="M1069.8,393.1c-.8.1-1.9.3-3.1.4-9,.8-26.7,1-26.7,1s-13.2-26.2-24.5-25.3c0,0,10.4-11.8,14.6-10.4.7.2,1.2-.3,1.4-1.3,1.1-5-2.8-22.4-2.8-22.4l-5.3-23.4,31,7.6c2.8.6,11.5,5.1,11.5,5.1s.3,12.1,2.5,14.9,4.8,16.3,4.5,19.7,3.1,19.1-.3,23.4S1076.8,391.9,1069.8,393.1Z" transform="translate(-13.92 -26)"/><path class="cls-4" d="M1038,331.7s25.9,2.8,27,9.3S1038,331.7,1038,331.7Z" transform="translate(-13.92 -26)"/><path class="cls-4" d="M1014.6,242.3a34,34,0,0,1-9.2,23.2.35.35,0,0,1-.1-.2c-1-2.1-2-4.4-1.9-6.7.1-2.8,1.7-5.4,2.3-8.2.7-3.5-.5-7.1-1.6-10.5-.8-2.5-2.4-5.5-5.1-5.2a7.77,7.77,0,0,1-1.6.2c-1.4-.2-1.7-2-1.8-3.4a15.6,15.6,0,0,0-12.7-13.4,4.12,4.12,0,0,0-2.2.1c-1,.4-1.5,1.5-2.4,2.1-2.9,2-6.5-1.8-10-1.5-3,.3-4.8,3.3-6,6s-2.7,5.8-5.6,6.4a2.2,2.2,0,0,1-1.4-.1c-.9-.7-.3-2,.2-3.1,1.2-2.7.4-4.8-1.1-6.7a33.83,33.83,0,0,1,60.2,21Z" transform="translate(-13.92 -26)"/><path class="cls-10" d="M905.6,505.9c-2.9-1.5-5.7-3-8.4-4.7-3.8-2.3-7.5-4.9-11.1-7.6l-3.5-28-.1-.9L876,411.4l-.4-3.1,10.9-.3,7.7-.2.5,4.5,4.4,37.5.1.9Z" transform="translate(-13.92 -26)"/><path class="cls-4" d="M897.2,501.2c-3.8-2.3-7.5-4.9-11.1-7.6l-3.5-28-.1-.9L876,411.4l-.4-3.1,10.9-.3-.5,1.7.3,2.2,5.5,44.5.1.9Z" transform="translate(-13.92 -26)"/><path class="cls-10" d="M972.1,408.8l-.6,4.8-.9,7.2-2,15.9-.1,1.1-.1,1.1-5.5,43.6-1.7,13.6-.6,4.5-.1.5-2.2,17.7-2.5-.2h-.5c-1.7-.1-3.5-.3-5.2-.5l-3-.3-4.5-.6h-.1L941,517l1.4-9.9v-.3l6.4-47.9,2.7-20.3.2-1.1.2-1.1,2.1-15.9.9-6.7.5-3.9h.7Z" transform="translate(-13.92 -26)"/><path class="cls-11" d="M962.8,411.4l-.3,2.4-.8,6.9-1.9,15.9-.1,1.1-.2,1.2-3.7,31.5-4,33.6v.4l-1,8.4-.6,5.5-3-.3-4.5-.6h-.1l-1.5-.2,1.4-9.9V507l6.4-47.9,2.7-20.3.2-1.1.2-1.1,2.1-15.9.9-6.7.5-3.9h.7Z" transform="translate(-13.92 -26)"/><path class="cls-6" d="M1043.7,502.5l.4,2.9c-1.8.9-3.6,1.8-5.4,2.6-2.2,1-4.4,1.9-6.7,2.7l-1.7-13.2-1.1-8.6-1.9-14.8-1.8-14.3-.3-2.4-4.4-34.8-.8-6.1-.2-2-.2-1.8-.5-4.2h.4l7.6-.8,2.4-.3.8,5.1,1.1,7.2,7.1,47.7,1.5,10.1,1.4,9.5,2.2,14.9Z" transform="translate(-13.92 -26)"/><path class="cls-12" d="M1043.7,502.5l.4,2.9c-1.8.9-3.6,1.8-5.4,2.6-2.2,1-4.4,1.9-6.7,2.7l-1.7-13.2-1.1-8.6-1.9-14.8-1.8-14.3-.3-2.4-4.4-34.8-.8-6.1-.2-2-.2-1.8-.5-4.2h.4l7.6-.8,2.4-.3.8,5.1,1.1,7.2,7.1,47.7,1.5,10.1,1.4,9.5,2.2,14.9Z" transform="translate(-13.92 -26)"/><path class="cls-10" d="M1044.2,505.4c-1.8.9-3.6,1.8-5.4,2.6l-1.1-9.9-.8-6.7-1.1-9.3-.2-1.6-1.2-10.6-5.7-49.4-.9-7.9-.3-2.6-.5-2.3,2.4-.3.8,5.1,1.1,7.2,7.1,47.7,1.5,10.1,1.4,9.5,2.2,14.9.1.5Z" transform="translate(-13.92 -26)"/><path class="cls-6" d="M1068.1,408l-.1,3.8-1.2,78.9-1.8,1.5v.6l-1.1.5-.8.3-2.1,1.5-.5.3c-1.7,1.2-3.3,2.3-5.1,3.5v-2.4l1-68,.1-4.2.2-12.3.1-5.5,7.6,1Z" transform="translate(-13.92 -26)"/><path class="cls-12" d="M1068.1,408l-.1,3.8-1.2,78.9-1.8,1.5v.6l-1.1.5-.8.3-2.1,1.5-.5.3c-1.7,1.2-3.3,2.3-5.1,3.5v-2.4l1-68,.1-4.2.2-12.3.1-5.5,7.6,1Z" transform="translate(-13.92 -26)"/><path class="cls-10" d="M1068.1,408l-.1,3.8-1.2,78.9-1.8,1.5v.6l-1.1.5V493l.2-31,.3-50.1v-4.4Z" transform="translate(-13.92 -26)"/><path class="cls-6" d="M1119.7,402.9h0c0,.4-.1.6-.1.9-.4,2.4-.8,4.7-1.3,7.1l-50.3.9-3.7.1-7.6.1-3.2.1h-1.1l-22.1.4h-2.4l-8,.1h-.2l-6.1.1-9.9.2h-1.1l-31,.6-9,.2-7.6.1-6.6.1h-3.6l-5,.1L917,413h-1.1l-21.2-.9-8.4-.4-10.3-.5-62.2-2.7c-1.5-2.8-3-5.7-4.4-8.7-.4-.9-.9-1.8-1.3-2.7l63.3-1h0l39-.6h0l7.4-.1h1.1l20-.3,6.8.4h.1l3.4.2,1.1.1,13.7.8h0l33.2,1.8,1.2.1,15.5.9,4.7.3h.1l31,1.7,1.1.1h.3Z" transform="translate(-13.92 -26)"/><path class="cls-10" d="M1119.7,402.9h0c0,.4-.1.6-.1.9-.4,2.4-.8,4.7-1.3,7.1l-50.3.9-3.6.1-7.6.1-3.2.1h-1.1l-22.1.4H1028l-8,.1h-.2l-6.1.1-9.9.2h-1.1l-31,.6-9,.2-7.6.1-6.6.1h-3.6l-5,.1-22.8-1H916l-21.2-.9-8.4-.4-10.3-.4-62.2-2.7c-1.5-2.8-3-5.7-4.4-8.7-.4-.9-.9-1.8-1.3-2.7l63.3-1h0l39-.6h0l7.4-.1H919l20-.3,6.8.4h.1l3.4.2,1.1.1,13.7.8h0l33.2,1.8,1.1.1,15.5.9,4.7.3h.1l31,1.7,1.1.1h.3Z" transform="translate(-13.92 -26)"/><path class="cls-4" d="M1119.7,402.9h0l-68.4.2h-1.1l-31.2.1H999l-49.4.1h-4.3l-27.3.1h-1l-28.5.1-79.2-3.4c-.4-.9-.9-1.8-1.3-2.7l63.3-1h0l39-.6h0l7.4-.1h1.1l20-.3,6.8.4h.1l3.4.2,1.1.1,13.7.8h0l33.2,1.8,1.1.1,15.5.9,4.7.3h.1l31,1.7,1.1.1h.3Z" transform="translate(-13.92 -26)"/><path class="cls-4" d="M1053.4,357c1.7.6,11.5,3.1,13.5,9S1053.4,357,1053.4,357Z" transform="translate(-13.92 -26)"/><path class="cls-5" d="M1024.4,366.9s-14.3,4.4-20.8,4.4-31.8-.1-31.8-.1-66.2-22.1-46.3,8.2,51.2,13.4,51.2,13.4,2.5.6,5.6,1.3,62.9.1,64.9-2.3S1024.4,366.9,1024.4,366.9Z" transform="translate(-13.92 -26)"/><path class="cls-4" d="M1065.5,393.4c-9,.8-26.7,1-26.7,1s-13.2-26.2-24.5-25.3c0,0,10.4-11.8,14.6-10.4.7.2,1.1-.3,1.4-1.3,11,3.4,32,11.6,34.1,26.1C1065,387.4,1065.3,390.6,1065.5,393.4Z" transform="translate(-13.92 -26)"/><path class="cls-13" d="M1066.6,393.4c-9,.8-26.7,1-26.7,1s-13.2-26.2-24.5-25.3c0,0,10.4-11.8,14.6-10.4.7.2,1.2-.3,1.4-1.3,11,3.4,32,11.6,34.1,26.1C1066.1,387.4,1066.4,390.6,1066.6,393.4Z" transform="translate(-13.92 -26)"/><path class="cls-4" d="M1065.5,393.4c-9,.8-26.7,1-26.7,1s-13.2-26.2-24.5-25.3c0,0,10.4-11.8,14.6-10.4.7.2,1.1-.3,1.4-1.3,11,3.4,32,11.6,34.1,26.1C1065,387.4,1065.3,390.7,1065.5,393.4Z" transform="translate(-13.92 -26)"/><path class="cls-4" d="M987.6,468.8s25.3-6.2,29.3-2.8S987.6,468.8,987.6,468.8Z" transform="translate(-13.92 -26)"/><path class="cls-4" d="M915,493s10.7,6.2,11.8,11.3S915,493,915,493Z" transform="translate(-13.92 -26)"/><path class="cls-14" d="M869.7,282.9V393.8c0,1.9,1,2.2,2.7,3.1,5.6,3.1,19.5,8.7,36.1-.1,1.7-.9,2.8-1.2,2.8-3.1V283.6S890.1,292.1,869.7,282.9Z" transform="translate(-13.92 -26)"/><ellipse class="cls-15" cx="876.58" cy="256.8" rx="20.8" ry="4.4"/><g class="cls-16"><circle cx="857.68" cy="303" r="0.5"/><circle cx="859.98" cy="303.6" r="0.5"/><circle cx="862.98" cy="304.5" r="0.5"/><circle cx="868.18" cy="305.7" r="0.5"/><circle cx="873.68" cy="306.3" r="0.5"/><circle cx="879.48" cy="306.6" r="0.5"/><circle cx="887.68" cy="305.5" r="0.5"/><circle cx="884.98" cy="306.1" r="0.5"/><circle cx="892.78" cy="304.5" r="0.5"/><circle cx="890.28" cy="305" r="0.5"/><circle cx="895.48" cy="303.6" r="0.5"/><circle cx="865.58" cy="305.2" r="0.5"/><circle cx="871.08" cy="306.1" r="0.5"/><circle cx="876.88" cy="306.6" r="0.5"/><circle cx="882.28" cy="306.6" r="0.5"/></g><g class="cls-16"><circle cx="857.68" cy="305.2" r="0.5"/><circle cx="859.98" cy="305.9" r="0.5"/><circle cx="862.98" cy="306.8" r="0.5"/><circle cx="868.18" cy="308" r="0.5"/><circle cx="873.68" cy="308.6" r="0.5"/><circle cx="879.48" cy="308.9" r="0.5"/><circle cx="887.68" cy="307.8" r="0.5"/><circle cx="884.98" cy="308.4" r="0.5"/><circle cx="892.78" cy="306.8" r="0.5"/><circle cx="890.28" cy="307.3" r="0.5"/><circle cx="895.48" cy="305.9" r="0.5"/><circle cx="865.58" cy="307.5" r="0.5"/><circle cx="871.08" cy="308.4" r="0.5"/><circle cx="876.88" cy="308.9" r="0.5"/><circle cx="882.28" cy="308.9" r="0.5"/></g><g class="cls-16"><circle cx="857.68" cy="307.5" r="0.5"/><circle cx="859.98" cy="308.2" r="0.5"/><circle cx="862.98" cy="309.1" r="0.5"/><circle cx="868.18" cy="310.3" r="0.5"/><circle cx="873.68" cy="310.9" r="0.5"/><circle cx="879.48" cy="311.2" r="0.5"/><circle cx="887.68" cy="310.1" r="0.5"/><circle cx="884.98" cy="310.7" r="0.5"/><circle cx="892.78" cy="309.1" r="0.5"/><circle cx="890.28" cy="309.6" r="0.5"/><circle cx="895.48" cy="308.2" r="0.5"/><circle cx="865.58" cy="309.8" r="0.5"/><circle cx="871.08" cy="310.7" r="0.5"/><circle cx="876.88" cy="311.2" r="0.5"/><circle cx="882.28" cy="311.2" r="0.5"/></g><g class="cls-16"><circle cx="857.68" cy="309.8" r="0.5"/><circle cx="859.98" cy="310.5" r="0.5"/><circle cx="862.98" cy="311.4" r="0.5"/><circle cx="868.18" cy="312.6" r="0.5"/><circle cx="873.68" cy="313.2" r="0.5"/><circle cx="879.48" cy="313.5" r="0.5"/><circle cx="887.68" cy="312.4" r="0.5"/><circle cx="884.98" cy="313" r="0.5"/><circle cx="892.78" cy="311.4" r="0.5"/><circle cx="890.28" cy="311.9" r="0.5"/><circle cx="895.48" cy="310.5" r="0.5"/><circle cx="865.58" cy="312.1" r="0.5"/><circle cx="871.08" cy="313" r="0.5"/><circle cx="876.88" cy="313.5" r="0.5"/><circle cx="882.28" cy="313.5" r="0.5"/></g><g class="cls-16"><circle cx="857.68" cy="312.1" r="0.5"/><circle cx="859.98" cy="312.8" r="0.5"/><circle cx="862.98" cy="313.7" r="0.5"/><circle cx="868.18" cy="314.9" r="0.5"/><circle cx="873.68" cy="315.5" r="0.5"/><circle cx="879.48" cy="315.8" r="0.5"/><circle cx="887.68" cy="314.7" r="0.5"/><circle cx="884.98" cy="315.3" r="0.5"/><circle cx="892.78" cy="313.7" r="0.5"/><circle cx="890.28" cy="314.2" r="0.5"/><circle cx="895.48" cy="312.8" r="0.5"/><circle cx="865.58" cy="314.4" r="0.5"/><circle cx="871.08" cy="315.3" r="0.5"/><circle cx="876.88" cy="315.8" r="0.5"/><circle cx="882.28" cy="315.8" r="0.5"/></g><g class="cls-16"><circle cx="857.68" cy="314.4" r="0.5"/><circle cx="859.98" cy="315.1" r="0.5"/><circle cx="862.98" cy="316" r="0.5"/><circle cx="868.18" cy="317.1" r="0.5"/><circle cx="873.68" cy="317.8" r="0.5"/><circle cx="879.48" cy="318.1" r="0.5"/><circle cx="887.68" cy="317" r="0.5"/><circle cx="884.98" cy="317.6" r="0.5"/><circle cx="892.78" cy="316" r="0.5"/><circle cx="890.28" cy="316.5" r="0.5"/><circle cx="895.48" cy="315.1" r="0.5"/><circle cx="865.58" cy="316.7" r="0.5"/><circle cx="871.08" cy="317.6" r="0.5"/><circle cx="876.88" cy="318.1" r="0.5"/><circle cx="882.28" cy="318.1" r="0.5"/></g><g class="cls-16"><circle cx="857.68" cy="316.7" r="0.5"/><circle cx="859.98" cy="317.4" r="0.5"/><circle cx="862.98" cy="318.3" r="0.5"/><circle cx="868.18" cy="319.5" r="0.5"/><circle cx="873.68" cy="320.1" r="0.5"/><circle cx="879.48" cy="320.4" r="0.5"/><circle cx="887.68" cy="319.3" r="0.5"/><circle cx="884.98" cy="319.9" r="0.5"/><circle cx="892.78" cy="318.3" r="0.5"/><circle cx="890.28" cy="318.8" r="0.5"/><circle cx="895.48" cy="317.4" r="0.5"/><circle cx="865.58" cy="319" r="0.5"/><circle cx="871.08" cy="319.9" r="0.5"/><circle cx="876.88" cy="320.4" r="0.5"/><circle cx="882.28" cy="320.4" r="0.5"/></g><g class="cls-16"><circle cx="857.68" cy="319" r="0.5"/><circle cx="859.98" cy="319.7" r="0.5"/><circle cx="862.98" cy="320.6" r="0.5"/><circle cx="868.18" cy="321.7" r="0.5"/><circle cx="873.68" cy="322.4" r="0.5"/><circle cx="879.48" cy="322.7" r="0.5"/><circle cx="887.68" cy="321.5" r="0.5"/><circle cx="884.98" cy="322.2" r="0.5"/><circle cx="892.78" cy="320.6" r="0.5"/><circle cx="890.28" cy="321.1" r="0.5"/><circle cx="895.48" cy="319.7" r="0.5"/><circle cx="865.58" cy="321.3" r="0.5"/><circle cx="871.08" cy="322.2" r="0.5"/><circle cx="876.88" cy="322.7" r="0.5"/><circle cx="882.28" cy="322.7" r="0.5"/></g><g class="cls-16"><circle cx="857.68" cy="321.3" r="0.5"/><circle cx="859.98" cy="322" r="0.5"/><circle cx="862.98" cy="322.9" r="0.5"/><circle cx="868.18" cy="324" r="0.5"/><circle cx="873.68" cy="324.7" r="0.5"/><circle cx="879.48" cy="325" r="0.5"/><circle cx="887.68" cy="323.8" r="0.5"/><circle cx="884.98" cy="324.5" r="0.5"/><circle cx="892.78" cy="322.9" r="0.5"/><circle cx="890.28" cy="323.4" r="0.5"/><circle cx="895.48" cy="322" r="0.5"/><circle cx="865.58" cy="323.6" r="0.5"/><circle cx="871.08" cy="324.5" r="0.5"/><circle cx="876.88" cy="325" r="0.5"/><circle cx="882.28" cy="325" r="0.5"/></g><g class="cls-16"><circle cx="857.68" cy="323.6" r="0.5"/><circle cx="859.98" cy="324.3" r="0.5"/><circle cx="862.98" cy="325.2" r="0.5"/><circle cx="868.18" cy="326.3" r="0.5"/><circle cx="873.68" cy="327" r="0.5"/><circle cx="879.48" cy="327.3" r="0.5"/><circle cx="887.68" cy="326.1" r="0.5"/><circle cx="884.98" cy="326.8" r="0.5"/><circle cx="892.78" cy="325.2" r="0.5"/><circle cx="890.28" cy="325.7" r="0.5"/><circle cx="895.48" cy="324.3" r="0.5"/><circle cx="865.58" cy="325.9" r="0.5"/><circle cx="871.08" cy="326.8" r="0.5"/><circle cx="876.88" cy="327.3" r="0.5"/><circle cx="882.28" cy="327.3" r="0.5"/></g><g class="cls-16"><circle cx="857.68" cy="325.9" r="0.5"/><circle cx="859.98" cy="326.6" r="0.5"/><circle cx="862.98" cy="327.5" r="0.5"/><circle cx="868.18" cy="328.6" r="0.5"/><circle cx="873.68" cy="329.3" r="0.5"/><circle cx="879.48" cy="329.6" r="0.5"/><circle cx="887.68" cy="328.4" r="0.5"/><circle cx="884.98" cy="329.1" r="0.5"/><circle cx="892.78" cy="327.5" r="0.5"/><circle cx="890.28" cy="328" r="0.5"/><circle cx="895.48" cy="326.6" r="0.5"/><circle cx="865.58" cy="328.2" r="0.5"/><circle cx="871.08" cy="329.1" r="0.5"/><circle cx="876.88" cy="329.6" r="0.5"/><circle cx="882.28" cy="329.6" r="0.5"/></g><g class="cls-16"><circle cx="857.68" cy="328.2" r="0.5"/><circle cx="859.98" cy="328.9" r="0.5"/><circle cx="862.98" cy="329.8" r="0.5"/><circle cx="868.18" cy="330.9" r="0.5"/><circle cx="873.68" cy="331.6" r="0.5"/><circle cx="879.48" cy="331.9" r="0.5"/><circle cx="887.68" cy="330.7" r="0.5"/><circle cx="884.98" cy="331.4" r="0.5"/><circle cx="892.78" cy="329.8" r="0.5"/><circle cx="890.28" cy="330.3" r="0.5"/><circle cx="895.48" cy="328.9" r="0.5"/><circle cx="865.58" cy="330.5" r="0.5"/><circle cx="871.08" cy="331.4" r="0.5"/><circle cx="876.88" cy="331.9" r="0.5"/><circle cx="882.28" cy="331.9" r="0.5"/></g><g class="cls-16"><circle cx="857.68" cy="330.5" r="0.5"/><circle cx="859.98" cy="331.2" r="0.5"/><circle cx="862.98" cy="332.1" r="0.5"/><circle cx="868.18" cy="333.2" r="0.5"/><circle cx="873.68" cy="333.9" r="0.5"/><circle cx="879.48" cy="334.1" r="0.5"/><circle cx="887.68" cy="333" r="0.5"/><circle cx="884.98" cy="333.7" r="0.5"/><circle cx="892.78" cy="332.1" r="0.5"/><circle cx="890.28" cy="332.6" r="0.5"/><circle cx="895.48" cy="331.2" r="0.5"/><circle cx="865.58" cy="332.8" r="0.5"/><circle cx="871.08" cy="333.7" r="0.5"/><circle cx="876.88" cy="334.1" r="0.5"/><circle cx="882.28" cy="334.1" r="0.5"/></g><g class="cls-16"><circle cx="857.68" cy="332.8" r="0.5"/><circle cx="859.98" cy="333.5" r="0.5"/><circle cx="862.98" cy="334.4" r="0.5"/><circle cx="868.18" cy="335.5" r="0.5"/><circle cx="873.68" cy="336.2" r="0.5"/><circle cx="879.48" cy="336.5" r="0.5"/><circle cx="887.68" cy="335.3" r="0.5"/><circle cx="884.98" cy="336" r="0.5"/><circle cx="892.78" cy="334.4" r="0.5"/><circle cx="890.28" cy="334.9" r="0.5"/><circle cx="895.48" cy="333.5" r="0.5"/><circle cx="865.58" cy="335" r="0.5"/><circle cx="871.08" cy="336" r="0.5"/><circle cx="876.88" cy="336.5" r="0.5"/><circle cx="882.28" cy="336.5" r="0.5"/></g><g class="cls-16"><circle cx="857.68" cy="335.1" r="0.5"/><circle cx="859.98" cy="335.8" r="0.5"/><circle cx="862.98" cy="336.7" r="0.5"/><circle cx="868.18" cy="337.8" r="0.5"/><circle cx="873.68" cy="338.5" r="0.5"/><circle cx="879.48" cy="338.8" r="0.5"/><circle cx="887.68" cy="337.6" r="0.5"/><circle cx="884.98" cy="338.3" r="0.5"/><circle cx="892.78" cy="336.7" r="0.5"/><circle cx="890.28" cy="337.1" r="0.5"/><circle cx="895.48" cy="335.8" r="0.5"/><circle cx="865.58" cy="337.4" r="0.5"/><circle cx="871.08" cy="338.3" r="0.5"/><circle cx="876.88" cy="338.8" r="0.5"/><circle cx="882.28" cy="338.8" r="0.5"/></g><g class="cls-16"><circle cx="857.68" cy="337.4" r="0.5"/><circle cx="859.98" cy="338" r="0.5"/><circle cx="862.98" cy="339" r="0.5"/><circle cx="868.18" cy="340.1" r="0.5"/><circle cx="873.68" cy="340.8" r="0.5"/><circle cx="879.48" cy="341" r="0.5"/><circle cx="887.68" cy="339.9" r="0.5"/><circle cx="884.98" cy="340.6" r="0.5"/><circle cx="892.78" cy="339" r="0.5"/><circle cx="890.28" cy="339.4" r="0.5"/><circle cx="895.48" cy="338" r="0.5"/><circle cx="865.58" cy="339.6" r="0.5"/><circle cx="871.08" cy="340.6" r="0.5"/><circle cx="876.88" cy="341" r="0.5"/><circle cx="882.28" cy="341" r="0.5"/></g><g class="cls-16"><circle cx="857.68" cy="339.7" r="0.5"/><circle cx="859.98" cy="340.3" r="0.5"/><circle cx="862.98" cy="341.3" r="0.5"/><circle cx="868.18" cy="342.4" r="0.5"/><circle cx="873.68" cy="343.1" r="0.5"/><circle cx="879.48" cy="343.3" r="0.5"/><circle cx="887.68" cy="342.2" r="0.5"/><circle cx="884.98" cy="342.9" r="0.5"/><circle cx="892.78" cy="341.3" r="0.5"/><circle cx="890.28" cy="341.7" r="0.5"/><circle cx="895.48" cy="340.3" r="0.5"/><circle cx="865.58" cy="341.9" r="0.5"/><circle cx="871.08" cy="342.9" r="0.5"/><circle cx="876.88" cy="343.3" r="0.5"/><circle cx="882.28" cy="343.3" r="0.5"/></g><g class="cls-16"><circle cx="857.68" cy="342" r="0.5"/><circle cx="859.98" cy="342.6" r="0.5"/><circle cx="862.98" cy="343.6" r="0.5"/><circle cx="868.18" cy="344.7" r="0.5"/><circle cx="873.68" cy="345.4" r="0.5"/><circle cx="879.48" cy="345.6" r="0.5"/><circle cx="887.68" cy="344.5" r="0.5"/><circle cx="884.98" cy="345.2" r="0.5"/><circle cx="892.78" cy="343.6" r="0.5"/><circle cx="890.28" cy="344" r="0.5"/><circle cx="895.48" cy="342.6" r="0.5"/><circle cx="865.58" cy="344.2" r="0.5"/><circle cx="871.08" cy="345.2" r="0.5"/><circle cx="876.88" cy="345.6" r="0.5"/><circle cx="882.28" cy="345.6" r="0.5"/></g><g class="cls-16"><circle cx="857.68" cy="344.3" r="0.5"/><circle cx="859.98" cy="344.9" r="0.5"/><circle cx="862.98" cy="345.9" r="0.5"/><circle cx="868.18" cy="347" r="0.5"/><circle cx="873.68" cy="347.7" r="0.5"/><circle cx="879.48" cy="347.9" r="0.5"/><circle cx="887.68" cy="346.8" r="0.5"/><circle cx="884.98" cy="347.5" r="0.5"/><circle cx="892.78" cy="345.9" r="0.5"/><circle cx="890.28" cy="346.3" r="0.5"/><circle cx="895.48" cy="344.9" r="0.5"/><circle cx="865.58" cy="346.5" r="0.5"/><circle cx="871.08" cy="347.5" r="0.5"/><circle cx="876.88" cy="347.9" r="0.5"/><circle cx="882.28" cy="347.9" r="0.5"/></g><g class="cls-16"><circle cx="857.68" cy="346.6" r="0.5"/><circle cx="859.98" cy="347.2" r="0.5"/><circle cx="862.98" cy="348.2" r="0.5"/><circle cx="868.18" cy="349.3" r="0.5"/><circle cx="873.68" cy="350" r="0.5"/><circle cx="879.48" cy="350.2" r="0.5"/><circle cx="887.68" cy="349.1" r="0.5"/><circle cx="884.98" cy="349.8" r="0.5"/><circle cx="892.78" cy="348.2" r="0.5"/><circle cx="890.28" cy="348.6" r="0.5"/><circle cx="895.48" cy="347.2" r="0.5"/><circle cx="865.58" cy="348.8" r="0.5"/><circle cx="871.08" cy="349.8" r="0.5"/><circle cx="876.88" cy="350.2" r="0.5"/><circle cx="882.28" cy="350.2" r="0.5"/></g><g class="cls-16"><circle cx="857.68" cy="348.9" r="0.5"/><circle cx="859.98" cy="349.5" r="0.5"/><circle cx="862.98" cy="350.5" r="0.5"/><circle cx="868.18" cy="351.6" r="0.5"/><circle cx="873.68" cy="352.3" r="0.5"/><circle cx="879.48" cy="352.5" r="0.5"/><circle cx="887.68" cy="351.4" r="0.5"/><circle cx="884.98" cy="352" r="0.5"/><circle cx="892.78" cy="350.5" r="0.5"/><circle cx="890.28" cy="350.9" r="0.5"/><circle cx="895.48" cy="349.5" r="0.5"/><circle cx="865.58" cy="351.1" r="0.5"/><circle cx="871.08" cy="352" r="0.5"/><circle cx="876.88" cy="352.5" r="0.5"/><circle cx="882.28" cy="352.5" r="0.5"/></g><g class="cls-16"><circle cx="857.68" cy="351.2" r="0.5"/><circle cx="859.98" cy="351.8" r="0.5"/><circle cx="862.98" cy="352.8" r="0.5"/><circle cx="868.18" cy="353.9" r="0.5"/><circle cx="873.68" cy="354.5" r="0.5"/><circle cx="879.48" cy="354.8" r="0.5"/><circle cx="887.68" cy="353.7" r="0.5"/><circle cx="884.98" cy="354.4" r="0.5"/><circle cx="892.78" cy="352.8" r="0.5"/><circle cx="890.28" cy="353.2" r="0.5"/><circle cx="895.48" cy="351.8" r="0.5"/><circle cx="865.58" cy="353.4" r="0.5"/><circle cx="871.08" cy="354.4" r="0.5"/><circle cx="876.88" cy="354.8" r="0.5"/><circle cx="882.28" cy="354.8" r="0.5"/></g><g class="cls-16"><circle cx="857.68" cy="353.5" r="0.5"/><circle cx="859.98" cy="354.1" r="0.5"/><circle cx="862.98" cy="355" r="0.5"/><circle cx="868.18" cy="356.2" r="0.5"/><circle cx="873.68" cy="356.9" r="0.5"/><circle cx="879.48" cy="357.1" r="0.5"/><circle cx="887.68" cy="356" r="0.5"/><circle cx="884.98" cy="356.6" r="0.5"/><circle cx="892.78" cy="355" r="0.5"/><circle cx="890.28" cy="355.5" r="0.5"/><circle cx="895.48" cy="354.1" r="0.5"/><circle cx="865.58" cy="355.7" r="0.5"/><circle cx="871.08" cy="356.6" r="0.5"/><circle cx="876.88" cy="357.1" r="0.5"/><circle cx="882.28" cy="357.1" r="0.5"/></g><g class="cls-16"><circle cx="857.68" cy="355.8" r="0.5"/><circle cx="859.98" cy="356.4" r="0.5"/><circle cx="862.98" cy="357.3" r="0.5"/><circle cx="868.18" cy="358.5" r="0.5"/><circle cx="873.68" cy="359.1" r="0.5"/><circle cx="879.48" cy="359.4" r="0.5"/><circle cx="887.68" cy="358.3" r="0.5"/><circle cx="884.98" cy="358.9" r="0.5"/><circle cx="892.78" cy="357.3" r="0.5"/><circle cx="890.28" cy="357.8" r="0.5"/><circle cx="895.48" cy="356.4" r="0.5"/><circle cx="865.58" cy="358" r="0.5"/><circle cx="871.08" cy="358.9" r="0.5"/><circle cx="876.88" cy="359.4" r="0.5"/><circle cx="882.28" cy="359.4" r="0.5"/></g><path class="cls-3" d="M945.8,226.7s13.7-5.1,18.2,5.4l1.3.3,2.9.7c7.3-10.8,26.3,0,26.3,0l26.8,11.9-1,1.7-26.9-9.4s-3.6,11-8.2,13.6-12.2-1.5-12.2-1.5c-4.7-1.9-5.1-10.2-5-14.2l-4.1-.8c-.3,4-1.8,11.7-9,12.6-9.8,1.2-10.5-7.5-10.5-7.5S944.1,228.5,945.8,226.7Z" transform="translate(-13.92 -26)"/><path class="cls-13" d="M955.5,226.8c-.5,1-1.1,2.4-.2,3.1a2.2,2.2,0,0,0,1.4.2c2.9-.6,4.4-3.7,5.6-6.4s3-5.7,6-6c3.5-.3,7.1,3.5,10,1.5.9-.6,1.4-1.7,2.4-2.1a3.33,3.33,0,0,1,2.2-.1,15.49,15.49,0,0,1,12.7,13.3c.2,1.4.4,3.2,1.8,3.4a10,10,0,0,0,1.6-.2c2.6-.3,4.2,2.7,5.1,5.2,1.1,3.4,2.3,7,1.6,10.5-.5,2.8-2.2,5.4-2.3,8.2-.1,2.3.9,4.6,1.9,6.7s2.6,4.6,4.9,4.3c1.9-.3,2.9-2.3,3.9-4s2.6-3.5,4.4-3c.8.2,1.7.9,2.4.5a1.52,1.52,0,0,0,.7-1.2c.9-3.9-.4-8.4,1.5-11.9,1.5-2.7,4.5-4.2,6.9-6.1a19.71,19.71,0,0,0,3.1-27.7,2.18,2.18,0,0,0-.4-.5c-2.6-3-6.3-5.7-6.5-9.7-.2-3,1.9-5.8,1.9-8.9s-1.9-5.6-4-7.6a26.44,26.44,0,0,0-23.6-6.2c-2.2.5-4.4,1.3-6.6,1.1-2.6-.3-4.7-2-7.1-3.2-7.6-3.9-17.9-1.1-22.5,6.1-2.7,4.1-3.7,9.6-7.7,12.5-2.6,1.9-6.4,2.6-7.8,5.5-.9,1.7-.6,3.8-.4,5.7a13,13,0,0,0,4.3,8.2C955,220.5,957.1,223.1,955.5,226.8Z" transform="translate(-13.92 -26)"/><g class="cls-17"><path d="M1027.3,199.4a9.76,9.76,0,0,0,.6-2.3C1027.7,197.8,1027.5,198.6,1027.3,199.4Z" transform="translate(-13.92 -26)"/><path d="M956.1,224.4a4.71,4.71,0,0,1,.6-1.5c1.6-3.7-.5-6.3-2.9-8.8a13,13,0,0,1-4.3-8.2,22.76,22.76,0,0,1-.2-2.6,3.51,3.51,0,0,0-.5.8c-.9,1.7-.6,3.8-.4,5.7a13,13,0,0,0,4.3,8.2C954.5,219.9,956.1,221.9,956.1,224.4Z" transform="translate(-13.92 -26)"/><path d="M1019.5,257.6c-1.8-.5-3.5,1.3-4.4,3s-2,3.7-3.9,4c-2.3.3-3.9-2.2-4.9-4.3s-2-4.4-1.9-6.7a2,2,0,0,1,.1-.8,13.06,13.06,0,0,0-1.2,4.8c-.1,2.3.9,4.6,1.9,6.7s2.6,4.6,4.9,4.3c1.9-.3,2.9-2.3,3.9-4s2.6-3.5,4.4-3c.8.2,1.7.9,2.4.5a1.52,1.52,0,0,0,.7-1.2,12.41,12.41,0,0,0,.3-2.7C1021.2,258.5,1020.3,257.9,1019.5,257.6Z" transform="translate(-13.92 -26)"/><path d="M1031.1,238.9c-2.4,1.9-5.4,3.4-6.9,6.1a10.21,10.21,0,0,0-1,3.8c1.5-2.6,4.4-4.1,6.8-6a20.4,20.4,0,0,0,7.1-12A19.36,19.36,0,0,1,1031.1,238.9Z" transform="translate(-13.92 -26)"/><path d="M1005.7,248.8a35.79,35.79,0,0,0,1.1-3.5c.7-3.5-.5-7.1-1.6-10.5-.8-2.5-2.4-5.5-5-5.2a7.77,7.77,0,0,1-1.6.2c-1.4-.2-1.7-2-1.8-3.4a15.6,15.6,0,0,0-12.7-13.3,4.12,4.12,0,0,0-2.2.1c-1,.4-1.5,1.5-2.4,2.1-2.9,2-6.5-1.8-10-1.5-2.9.2-4.8,3.3-6,6s-2.7,5.8-5.6,6.4a1.76,1.76,0,0,1-1.4-.2,1.37,1.37,0,0,1-.5-.8,8.44,8.44,0,0,1-.5,1.7c-.5,1-1.1,2.4-.2,3.1a2.2,2.2,0,0,0,1.4.2c2.9-.6,4.4-3.7,5.6-6.4s3-5.7,6-6c3.5-.3,7.1,3.5,10,1.5.9-.6,1.4-1.7,2.4-2.1a3.33,3.33,0,0,1,2.2-.1,15.49,15.49,0,0,1,12.7,13.3c.2,1.4.4,3.2,1.8,3.4a10,10,0,0,0,1.6-.2c2.6-.3,4.2,2.7,5.1,5.2C1005.1,242,1006.2,245.4,1005.7,248.8Z" transform="translate(-13.92 -26)"/></g></g><g class="cls-1"><path class="cls-4" d="M344.35,339.39s7.8,6.1,11,6.1S344.35,339.39,344.35,339.39Z" transform="translate(-13.92 -26)"/><path class="cls-2" d="M13.94,252.41a26.2,26.2,0,0,0,.1,2.8,206.58,206.58,0,0,0,3.5,30.4c5.7,29.8,17.7,59.6,31.9,88,.2.5.5.9.7,1.4.3.7.7,1.3,1,2,.7,1.4,1.4,2.7,2.1,4.1l1.6,3h0a15.05,15.05,0,0,1,1.1,2.2c.2.4.5.9.7,1.3,3.9,7.5,8.2,14.7,12.8,21.8l.5.8a133.61,133.61,0,0,0,20.4,24c13.5,12.5,30.7,21.5,49.1,26.6.6.2,1.2.3,1.9.5l3.6.9,2.5.6a134,134,0,0,0,17.8,2.6c3.2.3,6.5.4,9.7.4h1.4a117,117,0,0,0,11.9-.7l.6-.1a105.32,105.32,0,0,0,31.2-8.4c1.6-.7,3.1-1.5,4.6-2.3l.8-.4.4-.2h0a124.58,124.58,0,0,0,14.7-9.2,189.65,189.65,0,0,0,15.6-12.5,256.39,256.39,0,0,0,21-20.7l.3-.3c2.8-3.2,5.5-6.4,8.1-9.8v-.1c1.8-2.3,3.5-4.7,5.1-7.1.1-.1.1-.2.2-.3a123.11,123.11,0,0,0,6.6-11l.5-.9c1.5-2.8,2.8-5.6,4-8.4,6.9-16.1,10-33.5,11.7-50.9,3.5-35.3,1.4-71.6-7.9-106.9-1.3-4.8-2.7-9.5-4.2-14.3-.2-.6-.4-1.3-.6-1.9-.3-1-.7-2-1-3.1-.1-.4-.3-.9-.4-1.3-1.3-3.8-2.8-7.7-4.3-11.4l-.8-2c-.9-2-1.7-4.1-2.6-6.1s-1.7-3.7-2.6-5.6c-.1-.3-.3-.6-.4-.9-7.7-15.8-17.8-31.2-32.2-42.8-1-.8-2-1.6-3-2.3-1.5-1.1-3-2.2-4.6-3.2l-1.1-.7-.4-.3-.3-.2-.2-.1a20.13,20.13,0,0,0-2.5-1.4c-.9-.4-1.7-.9-2.6-1.3h-.1l-.3-.2c-.7-.3-1.4-.7-2-1l-.7-.3-.3-.1-1.1-.5a88.27,88.27,0,0,0-15.9-4.8,70,70,0,0,0-9.2-1.1,58.74,58.74,0,0,0-13.9.8c-.7.1-1.4.3-2.1.4a43,43,0,0,0-16.1,7c-6.3,4.6-10.7,10.7-14.8,17l-.4.6c-.7,1.1-1.3,2.1-2,3.2-2.3,3.7-4.6,7.5-7.1,11.2-2.3,3.4-4.6,6.8-7.2,10a90.55,90.55,0,0,1-8.4,9.1c-.4.4-.9.8-1.4,1.3a62.58,62.58,0,0,1-18.9,11.6,35.34,35.34,0,0,1-19.5,2.1h0a30.92,30.92,0,0,1-5.4-1.7c-3.3-1.4-6.4-2.9-9.6-4.1a71.43,71.43,0,0,0-17.5-5h0a40.13,40.13,0,0,0-18.5,2c-1,.4-1.9.8-2.9,1.2a39.41,39.41,0,0,0-11.8,7.9l-1.2,1.2c-8.8,8.9-13.6,21.3-16.2,33.4A142.36,142.36,0,0,0,13.94,252.41Z" transform="translate(-13.92 -26)"/></g><path class="cls-18" d="M814.2,759.6l-8-25.5s-6.7-18.1-5.6-27.8-2.3-20.3-2.3-20.3l6.6-34.3a75.67,75.67,0,0,0,.3-8.7c0-8.2-1.2-19.7-6.8-22.7-9.1-4.8-27.7-45.3-31.6-45.3s-16.4-2.6-16.4-7v-.7c0-.1-.1-.2-.1-.3l-.1-.2-.2-.4-.1-.1a10.77,10.77,0,0,0-1.8-2.4c16.9-3.2,33.8-6.8,50.5-10.9H798l.6-.2a51.63,51.63,0,0,1-6.7-.5l-.5.1c-24.6-3.4-46.8-22.6-52.8-47-6.7-27,5-55.2,4.5-83A95.9,95.9,0,0,0,728,372.8c-1.3-2-2.6-3.9-4.1-5.8a38.07,38.07,0,0,0,17.6-50.8,40.79,40.79,0,0,0-2.9-5c-.4-.6-.9-1.2-1.3-1.8a38.06,38.06,0,0,1-6.2,47.1,37.77,37.77,0,0,0-66.2-36.4,5.73,5.73,0,0,1-.4.7,24.42,24.42,0,0,0-2.4-1,37.78,37.78,0,0,1,33.1-24.7c-.8,0-1.5-.1-2.3-.1a37.78,37.78,0,0,0-34.8,23.3c-11.3-4.1-23.1-5.9-34.8-2.9a33.54,33.54,0,0,0-6.3,2.2l.5-.4a28.54,28.54,0,0,0-7.9,5c-3.5,3.2-5.9,7.4-8.9,11.1a48.53,48.53,0,0,1-10.6,9.6,4.67,4.67,0,0,1,1-.5c-13.4,9.5-31.6,12.2-46.9,6.1-4.3-1.7-8.5-4.1-13-4.7a20.14,20.14,0,0,0-10.3,1.5c.1-.1.3-.2.4-.3a26.84,26.84,0,0,0-10.8,8.1c-5,6.2-7.5,14-9.3,21.7a72.63,72.63,0,0,0-2,16.7c.1,7.2,1.7,14.2,6,19.8,6.7,8.7,15.8,11,25.3,12.6-.3,1-.5,1.9-.8,2.9a86,86,0,0,0,59.4,103.7l1.8,3.1.6.1c4.4,7.5,9.3,15.9,13.8,24,.2.4.5.9.7,1.3l-8.5,4.4h0c-2.2,1.2-7.8,4.2-10.8,7.1a6.9,6.9,0,0,0-2,2.8c-1.3,4.4-8.2,15.7-13,18.7s-8.7,17.8-8.2,25.7-2.6,7-10.4,7.4,0,11.8,0,11.8l.2.8c-.4.6-.8,1.3-1.2,2-2,3.1-4.6,6.5-6.5,6.3-3.5-.3-5.6,8.2-5.4,9.5s-6.1,11.8-8.4,12.8-12.5,3.2-9.7,12.9L510,693.9l-10,9.6s-14.3-8.1-37.4,17a22.18,22.18,0,0,1,7.7.7l-.7.3c-6.1,2.9-16.7,7.8-24.5,11l-41.6,1.3v-31s-3.7-8.7-8,0l-1.1,31.3L304,737l16.9-18h0l.2-.2a14.66,14.66,0,0,0,3.3-14.7L253.8,482h0l-.5-1.6a12.24,12.24,0,0,0-10-8.4l-98.2-13.3-.7-.1-9,2.5a8.85,8.85,0,0,0-6.2,10.9v.1c2.3,8,6.1,21.1,11,37.5H126.6L137,599.3l6.3,34.5c1.6,8.8,3.5,17.5,5.7,26.2,5.2,21,15.5,65.8,15.8,91.8l-76,82.9v16.8H574.3c0,.1,0,.1.1.2H811s-2.6-4.6,3-11.1,2.8-32.4,2.8-32.4-3.1-4.1.7-13.3S814.2,759.6,814.2,759.6ZM211,740l-12.9.4-12-78.1C195,690.9,203.7,718,211,740Zm332.2,47.5-8.4-17.1a8.7,8.7,0,0,0,5.4-1.5c5.4-3.9,8.7-13.1,8.7-13.1l14.5-17.3,1.2-1.4c2.9,8.2,6.4,14.7,9.2,17.8,6.9,7.8,7.8,30.5,9.9,38.7s.5,4.8,0,9.6a10.4,10.4,0,0,0,.3,3.5C574.5,796.5,560.9,787.2,543.2,787.5Z" transform="translate(-13.92 -26)"/><polygon class="cls-19" points="79.88 809 165.28 716.5 504.28 705.6 563.48 825.6 79.88 825.6 79.88 809"/><polygon class="cls-11" points="79.88 809 165.28 716.5 504.28 705.6 563.48 825.6 79.88 825.6 79.88 809"/><path class="cls-19" d="M535.4,827.3v3.2a6.23,6.23,0,0,1-6.2,6.2H347c-3.5,0,0-6.9,0-6.9l-2.1-45.1a7.52,7.52,0,0,1,5.6-7.6c10.1-2.6,17.1,1.5,17.1,1.5l112.9-2.9a41,41,0,0,1,7,.3,30.36,30.36,0,0,1,20.7,12.3l25.9,35.2A5.85,5.85,0,0,1,535.4,827.3Z" transform="translate(-13.92 -26)"/><path class="cls-4" d="M535.4,830.5h0a6.23,6.23,0,0,1-6.2,6.2H347c-3.5,0,0-6.9,0-6.9s10.1-4.9,25-4l133-2.9s15.7.4,24.9,1.4A6.19,6.19,0,0,1,535.4,830.5Z" transform="translate(-13.92 -26)"/><polygon class="cls-20" points="469.78 757.5 355.48 757.5 358.58 792.3 491.08 790 469.78 757.5"/><path class="cls-19" d="M289.8,808v12L170,824.9s-27.4-1.9-30.8-18.7a15.68,15.68,0,0,1,.1-5.3c1.2-7.1,7.3-19.5,34.1-25.2l33-3.4H280S289.5,781.8,289.8,808Z" transform="translate(-13.92 -26)"/><path class="cls-4" d="M289.8,808.4V820L170,824.9s-27.4-1.9-30.8-18.7a15.68,15.68,0,0,1,.1-5.3s16.6,15.7,39,13.4l105.4-4.6C285.8,809.3,287.8,808.9,289.8,808.4Z" transform="translate(-13.92 -26)"/><ellipse class="cls-4" cx="197.81" cy="789.92" rx="36.8" ry="6.3" transform="translate(-54.31 -14.77) rotate(-2.95)"/><path class="cls-19" d="M209.5,786.9l-19.4,9.6-20.6-4.9-.1-33.6c1.3-24.5-10-73.6-15.6-95.9-2.2-8.6-4-17.3-5.6-26l-6.3-34.2-10.3-88.7h24.6l14.4,20.7Z" transform="translate(-13.92 -26)"/><path class="cls-19" d="M209.5,786.9l-19.4,9.6-12.4-71.8c.2-12.2-15.1-70.3-16.1-72.7C149.5,622.9,139,513.3,139,513.3h17.1l14.4,20.6Z" transform="translate(-13.92 -26)"/><path class="cls-21" d="M209.5,786.9l-19.4,9.6-12.4-71.8c.2-12.2-15.1-70.3-16.1-72.7C149.5,622.9,139,513.3,139,513.3h17.1l14.4,20.6Z" transform="translate(-13.92 -26)"/><path class="cls-19" d="M325,720.3l-66,69.5-7.7.5-9.4.7a10.65,10.65,0,0,1-10.5-6.3c-20-45-83.9-262.6-97.4-308.7a8.66,8.66,0,0,1,5.9-10.8c.1,0,.1,0,.2-.1l9-2.4.7.1L246,475.7a14.73,14.73,0,0,1,12,10.1l70.4,219.9A14.75,14.75,0,0,1,325,720.3Z" transform="translate(-13.92 -26)"/><path class="cls-4" d="M325,720.3l-66,69.5-7.7.5-9.4.7a10.65,10.65,0,0,1-10.5-6.3c-20-45-83.9-262.6-97.4-308.7a8.66,8.66,0,0,1,5.9-10.8c.1,0,.1,0,.2-.1l9-2.4.7.1L246,475.7a14.73,14.73,0,0,1,12,10.1l70.4,219.9A14.75,14.75,0,0,1,325,720.3Z" transform="translate(-13.92 -26)"/><path class="cls-19" d="M324.8,720.6,259,789.9l-7.7.5-98.7-316a30.84,30.84,0,0,1-2.8-11.5L247.6,476a12.13,12.13,0,0,1,9.9,8.3l70.8,221.1A15.41,15.41,0,0,1,324.8,720.6Z" transform="translate(-13.92 -26)"/><path class="cls-22" d="M320,708.9a14,14,0,0,1-2.7,3.3l-64.7,60.2L164.3,479.6l84.8,8.4a15,15,0,0,1,12.8,10.5L321.5,697A15,15,0,0,1,320,708.9Z" transform="translate(-13.92 -26)"/><path class="cls-4" d="M320,708.9,249.1,488a15,15,0,0,1,12.8,10.5L321.5,697A15,15,0,0,1,320,708.9Z" transform="translate(-13.92 -26)"/><circle class="cls-23" cx="686.38" cy="318.1" r="37.5"/><path class="cls-23" d="M662.3,338.6a37.57,37.57,0,0,1,35.3-37.5c-.7,0-1.5-.1-2.2-.1a37.56,37.56,0,1,0-1.3,75.1h1.2a15.48,15.48,0,0,0,2.2-.1A37.46,37.46,0,0,1,662.3,338.6Z" transform="translate(-13.92 -26)"/><path class="cls-4" d="M667.2,344.1a37.57,37.57,0,0,1,35.3-37.5c-.7,0-1.5-.1-2.2-.1a37.56,37.56,0,0,0,0,75.1,15.48,15.48,0,0,0,2.2-.1A37.34,37.34,0,0,1,667.2,344.1Z" transform="translate(-13.92 -26)"/><path class="cls-24" d="M507,765.2a87.25,87.25,0,0,1-10.8,4.9c-9.7,3.8-24.4,8.2-38.1,6.5-23-2.8-36.8,4.7-36.8,4.7L416.1,743s17-5,23.9-6.3c5.2-1,23.9-9.6,32.8-13.8l4.9-2.3h17.2Z" transform="translate(-13.92 -26)"/><path class="cls-4" d="M507,765.2a87.25,87.25,0,0,1-10.8,4.9c-1.2-34.2-14.3-44.3-23.3-47.2l4.9-2.3H495Z" transform="translate(-13.92 -26)"/><path class="cls-25" d="M570.8,650.6v84l-4.5,5.3L551.8,757s-3.2,9-8.6,12.9-17.7-1.3-17.7-1.3l-3.5,5.6s-7.8,1.5-11.4,0-12.7,4.3-12.7,4.3c1.3-61.6-32.1-56.7-32.1-56.7C488.9,697,503.1,705,503.1,705l9.9-9.5,12.3-12.4c-2.8-9.6,7.3-11.7,9.7-12.8s8.6-11.4,8.4-12.7,1.9-9.7,5.4-9.4c1.9.2,4.5-3.2,6.5-6.2a43,43,0,0,0,2.7-4.7Z" transform="translate(-13.92 -26)"/><path class="cls-26" d="M600.6,566.6l25.4-13-1.4,15.2,5,15.3s-4.6,11.8-5.2,13.1-11.5,28.3-11.5,28.3l-8.8-11.1Z" transform="translate(-13.92 -26)"/><polyline class="cls-4" points="590.28 588.5 586.68 540.6 612.08 527.6"/><path class="cls-24" d="M709.8,552.3s-8.4,12.1-20,27.6c-26.9,36-70.7,90-64,50.8.2-1.3.4-2.6.5-3.8-1.6,1.1-5.4.1-9.5-1.8l-.3-.1a41.92,41.92,0,0,1-5.8-3.4c-.2-.1-.4-.3-.6-.4-4.5-3.2-8.2-6.9-8-9.4,3.2-56.2,16.3-29.4,20-23.2a8.34,8.34,0,0,0,.8,1.2c-.2-.4-.3-.9-.5-1.4-2.6-6.3-7.5-15.8-13.1-25.9v-.1l-.8-1.3c-4.7-8.3-9.8-17.1-14.3-24.7l-1.2-2.1c-7.2-12.1-12.8-21.1-12.8-21.1s32.7-29.9,60.3-48.1c23-15.2,42.5-22.2,36.3,3.3-4,16.4-2.8,30.4.9,42,.1.4.3.9.4,1.3a51.81,51.81,0,0,0,2.6,6.5,69,69,0,0,0,4.5,8.5A80.13,80.13,0,0,0,709.8,552.3Z" transform="translate(-13.92 -26)"/><path class="cls-21" d="M658.9,506.9c-15.5,16.9-18.8,33-43.5,33a85.19,85.19,0,0,1-21.3-2.7c-7.8-13.1-14-23.2-14-23.2s110.2-100.8,96.5-44.8C672.4,486.1,654.9,495,658.9,506.9Z" transform="translate(-13.92 -26)"/><path class="cls-24" d="M700.3,452.3a84.9,84.9,0,1,1-84.9-84.9h0a84.52,84.52,0,0,1,84.9,84.1Z" transform="translate(-13.92 -26)"/><path class="cls-4" d="M613.4,599.3s1.5,24.1,16.8,22.2,3.7,51.3,3.7,51.3l-17,15.5-18.3,5.6s-16.2-4.7-15.9-5.6,6.5-51.3,6.5-51.3l9.5-26.9Z" transform="translate(-13.92 -26)"/><path class="cls-19" d="M613.4,601s1.5,24.1,16.8,22.2,3.7,51.3,3.7,51.3l-17,15.5-18.3,5.6s-16.2-4.7-15.9-5.6,6.5-51.3,6.5-51.3l9.5-26.9Z" transform="translate(-13.92 -26)"/><path class="cls-4" d="M570.8,650.6v84l-4.5,5.3c-4.7-12.3-8.2-29.1-6-44.1,2.8-19.9-2.8-45.5-4.9-53.7a43,43,0,0,0,2.7-4.7Z" transform="translate(-13.92 -26)"/><path class="cls-4" d="M615.4,603.6a46.38,46.38,0,0,1-3.7,13.7c-.6,1.3-1.1,2.6-1.7,3.8-4.5-3.2-8.2-6.9-8-9.4,3.2-56.2,16.3-29.4,20-23.2C620.2,589.9,616.2,593.9,615.4,603.6Z" transform="translate(-13.92 -26)"/><path class="cls-4" d="M622.3,588.3c-2.7-6.6-8-16.7-13.9-27.3l.8-.4L622.9,588Z" transform="translate(-13.92 -26)"/><path class="cls-4" d="M709.8,552.3s-93.5,134.5-84,78.4c.2-1.3.4-2.6.5-3.8-1.7,1.1-5.6.1-9.8-1.9.6-3.7,1-6.3,1-6.3l10.3-29.3s6-23.3,5.2-28l.3-.2,51.5-34.5h0A82.52,82.52,0,0,0,709.8,552.3Z" transform="translate(-13.92 -26)"/><path class="cls-27" d="M806.7,654l-7.3,37.9-22,159.9H586.5s3.4-28,3.4-32.3-3.9-10.8-3.4-15.5,2.1-1.3,0-9.5-3-30.6-9.9-38.3-18.1-36.2-14.7-60.3-5.6-56.5-5.6-56.5-7.8-11.2,0-11.6,10.8.4,10.3-7.3,3.4-22.4,8.2-25.4,11.6-14.2,12.9-18.5a6.9,6.9,0,0,1,2-2.8c3.9-3.7,11.8-7.5,11.8-7.5l7.5-3.8v.1l13.7,27.3s-6.4,3.1-7.5,15.6a46.38,46.38,0,0,1-3.7,13.7c-.4.9-.7,1.7-1.1,2.5-1.1,2.4-2.2,4.6-3.2,6.3h0c-1.4,2.5-2.4,4.1-2.4,4.1s-.4,2.9-.9,7h0c-1.2,8.4-3.1,21.7-4.2,24.8-1,2.8-3,7.7-4.1,12-.7,2.7-1.1,5.2-.7,6.9,0,.1.1.3.1.4,1.3,4,7.8-13.2,7.8-13.2s4.7-14.7,6.9-14.7c1.7,0,5.4-20.7,7-30.2.5-2.8.8-4.7.8-4.7l10.3-29.3s1.4-5.5,2.8-11.8c1.4-6.5,2.8-13.8,2.4-16.3l.3-.2,51.5-34.5h0l.8-.5h-.1c-.4,0-1.4-.6-3.4-5.3-.5-1.2-1.1-2.6-1.7-4.4,0,0,16.5-6.6,22.3-1.8a5.24,5.24,0,0,1,1,1.1,2.51,2.51,0,0,1,.4.7c3.9,8,5.6,14,9.5,19.2a10.71,10.71,0,0,0,1.4,1.6c4.7,4.9,14,10.7,12.4,12.2-1.7,1.7,12.9,9,12.9,9s8.6,4.9,11.3,9a4.19,4.19,0,0,1,.8,2.2c0,4.3,12.5,6.9,16.4,6.9s22.4,40.1,31.5,44.8S806.7,654,806.7,654Z" transform="translate(-13.92 -26)"/><g class="cls-17"><path d="M613.4,589.7s-6.4,3.1-7.5,15.6a46.38,46.38,0,0,1-3.7,13.7,89.55,89.55,0,0,1-4.3,8.8h0c-1.4,2.5-2.4,4.1-2.4,4.1s-.4,2.9-.9,7h0c-1.1,8.5-3.1,21.7-4.3,24.9-1,2.8-3,7.7-4.1,12-.7,2.7-1.1,5.2-.7,6.9,0,.1.1.3.1.4,1.3,4,7.8-13.2,7.8-13.2s4.7-14.7,6.9-14.7c.6,0,1.5-2.9,2.5-6.9.5-3.3,1-6.5,1.3-9.3h0c.6-4.1.9-7,.9-7s.6-.9,1.5-2.4c.9-5.3,1.6-9.3,1.6-9.3L618.4,591s.8-2.9,1.7-6.9l-11-21.9-7.5,3.8h0Z" transform="translate(-13.92 -26)"/><path d="M800.2,623c-9-4.7-27.6-44.8-31.5-44.8s-16.4-2.6-16.4-6.9-12.1-11.2-12.1-11.2-14.7-7.3-12.9-9c1.5-1.6-7.7-7.3-12.4-12.2-.5-.5-.9-1-1.4-1.6-3.9-5.2-5.6-11.2-9.5-19.2a4.34,4.34,0,0,0-.4-.7,10,10,0,0,0-1-1.1c-2.6-2.2-7.4-2-11.9-1.2a9,9,0,0,1,2.4,1.2,5.24,5.24,0,0,1,1,1.1,2.51,2.51,0,0,1,.4.7c3.9,8,5.6,14,9.5,19.2a19.2,19.2,0,0,0,1.4,1.5c4.7,4.9,14,10.7,12.4,12.2-1.7,1.7,12.9,9,12.9,9s12.1,6.9,12.1,11.2,12.5,6.9,16.4,6.9,22.4,40.1,31.5,44.8,6.5,31,6.5,31l-7.3,38-22,159.9h9.5l22-159.9,7.3-37.9S809.3,627.7,800.2,623Z" transform="translate(-13.92 -26)"/></g><path class="cls-24" d="M423.9,743.8s-54.8-15.9-58.7,8.5,22.4,38.3,39.2,37.9,24.1-16.4,24.1-16.4Z" transform="translate(-13.92 -26)"/><path class="cls-24" d="M698.8,818.6s-12.3,8.8-38.3,8.8S604,833,604,833s-38.8-91.3-116.6-13.1c0,0-14,18.1,58.6,20,0,0,25.6-.9,31.2,11.8h145L742,836.9Z" transform="translate(-13.92 -26)"/><path class="cls-19" d="M407,704.4s-3.7-8.6-8,0l-2.4,66.8,5.2,15.7,5.2-14Z" transform="translate(-13.92 -26)"/><path class="cls-4" d="M703.7,517.3c-7.5,2.6-15.8,8.6-18.2,10.4-.5,0-2-1-5.1-9.7C680.4,518.1,699,510.6,703.7,517.3Z" transform="translate(-13.92 -26)"/><path class="cls-26" d="M622.9,589.7s-6.4,3.1-7.5,15.6a46.38,46.38,0,0,1-3.7,13.7l-4.2,8.9h0L604.2,639h0l.3,22.7-8.8,14.2-.7,6.9L592.7,704l-11.6-5.6s4.8-34.2,8.4-41.2,8.4-43.6,8.4-43.6-.2-13.5,1.5-15.8-3-1.9-3.5-6.9c-.3-2.9-3.5-11.1-6.2-17.3,3.9-3.7,11.8-7.5,11.8-7.5l7.5-3.8Z" transform="translate(-13.92 -26)"/><path class="cls-25" d="M622.9,589.7s-6.4,3.1-7.5,15.6a46.38,46.38,0,0,1-3.7,13.7l-4.2,8.9h0L604.2,639h0l.3,22.7-8.8,14.2-.7,6.9L592.7,704l-11.6-5.6s4.8-34.2,8.4-41.2,8.4-43.6,8.4-43.6-.2-13.5,1.5-15.8-3-1.9-3.5-6.9c-.3-2.9-3.5-11.1-6.2-17.3,3.9-3.7,11.8-7.5,11.8-7.5l7.5-3.8Z" transform="translate(-13.92 -26)"/><path class="cls-4" d="M715,540.5c-9.6,7.9-35.5,30.2-38.4,45.3-3.7,18.7-14.7,16.9-14.7,16.9-13.7-29.8-23.2-37.1-28.6-38.1L684.8,530h0l.8-.5h-.1c-.4,0-1.4-.6-3.4-5.3l20.6-6.2a5.24,5.24,0,0,1,1,1.1,2.51,2.51,0,0,1,.4.7c3.9,8,5.6,14,9.5,19.2C714.1,539.5,714.5,540,715,540.5Z" transform="translate(-13.92 -26)"/><path class="cls-25" d="M715,538.8c-9.6,7.9-35.5,30.2-38.4,45.3-3.7,18.7-14.7,16.9-14.7,16.9-13.7-29.8-23.2-37.1-28.6-38.1l51.5-34.5h0l.8-.5h-.1c-.4,0-1.4-.6-3.4-5.3l20.6-6.2a5.24,5.24,0,0,1,1,1.1,2.51,2.51,0,0,1,.4.7c3.9,8,5.6,14,9.5,19.2A18.47,18.47,0,0,1,715,538.8Z" transform="translate(-13.92 -26)"/><path class="cls-4" d="M656.8,689.8c.6-.2,34.2-19.2,30.4-4.8S656.8,689.8,656.8,689.8Z" transform="translate(-13.92 -26)"/><path class="cls-4" d="M511.5,708s17.7,27.5,23.9,26.6S511.5,708,511.5,708Z" transform="translate(-13.92 -26)"/><path class="cls-4" d="M533.5,697.8s1.1,21.3,10.3,22.8S533.5,697.8,533.5,697.8Z" transform="translate(-13.92 -26)"/><path class="cls-4" d="M631.5,766.3s21.9,36.5,17.7,49.1Z" transform="translate(-13.92 -26)"/><path class="cls-4" d="M657,770.6s29.7,39,24.5,42.2S657,770.6,657,770.6Z" transform="translate(-13.92 -26)"/><path class="cls-4" d="M590.2,708s-3,27.7,8.4,35.8Z" transform="translate(-13.92 -26)"/><path class="cls-4" d="M723.3,584.6S672.5,624,680.6,665s16,44,16,44,3,16.4,8.6,23.3,4.7,11.4,4.7,11.4,5.2-2.4,6.9,9.5,10.8,20.3,10.8,20.3,3,9.5-4.7,14.7-6,10.8-6,10.8l-31.5,18.3,35,34.7H811s-2.6-4.5,3-11,2.8-32.1,2.8-32.1-3.1-4.1.7-13.2-3.3-34.9-3.3-34.9l-8-25.2s-6.7-17.9-5.6-27.5-2.2-20.1-2.2-20.1L781,633.2C781.1,633.1,781.9,578.4,723.3,584.6Z" transform="translate(-13.92 -26)"/><path class="cls-25" d="M725.1,584.6S674.3,624,682.4,665s15.9,44,15.9,44,3,16.4,8.6,23.3,4.7,11.4,4.7,11.4,5.2-2.4,6.9,9.5,10.8,20.3,10.8,20.3,3,9.5-4.7,14.7-6,10.8-6,10.8l-31.5,18.3L722.2,852h90.5s-2.6-4.5,3-11,2.8-32.1,2.8-32.1-3.1-4.1.7-13.2-3.3-34.9-3.3-34.9l-8-25.2s-6.7-17.9-5.6-27.5-2.2-20.1-2.2-20.1l-17.4-54.8C782.8,633.1,783.7,578.4,725.1,584.6Z" transform="translate(-13.92 -26)"/><path class="cls-4" d="M742.1,612.4s36.2,12.3,45.9,18.3S773.7,606.8,742.1,612.4Z" transform="translate(-13.92 -26)"/><path class="cls-4" d="M761,798.8s51.5,6.5,48.5,16.6S761,798.8,761,798.8Z" transform="translate(-13.92 -26)"/><path class="cls-4" d="M750.9,809.8s37.7,12.1,31,22S750.9,809.8,750.9,809.8Z" transform="translate(-13.92 -26)"/><path class="cls-4" d="M751.6,569.1c-20.5,4-41.2,7.4-61.9,10.8l-5.4.9c-11.4,1.9-22.8,3.8-34.3,3.7-5.6,0-11.4-.6-16.4-3.2a15.67,15.67,0,0,1-3-2c-3.5-2.8-6-6.9-5.9-11.3.1-8.1,7.7-13.7,14.3-18.3,9.6-6.8,19.1-15.5,22.9-26.4a34,34,0,0,0,1.5-6.3c1.1-9.3-2.3-18.4-5.9-27-3.9-9.4-9.3-19.4-17.2-25.1a25,25,0,0,0-10.8-4.4c-12.1-1.6-23.5,7-35.7,6.5-9.9-.4-18.3-6.8-24.2-14.3-4.3-5.4-7.1-12.7-13.6-16-7.1-3.5-15.1-4.3-22.9-5.5a84.88,84.88,0,1,1,144.3,78.9c.1.4.3.9.4,1.3a51.81,51.81,0,0,0,2.6,6.5s16.5-6.6,22.3-1.8a5.24,5.24,0,0,1,1,1.1,2.51,2.51,0,0,1,.4.7c3.9,8,5.6,14,9.5,19.2a10.71,10.71,0,0,0,1.4,1.6c4.7,4.9,14,10.7,12.4,12.2-1.7,1.7,12.9,9,12.9,9S748.9,565,751.6,569.1Z" transform="translate(-13.92 -26)"/><path class="cls-23" d="M508.7,416.1c-7.7-9.9-6.8-23.8-4-36,1.8-7.7,4.3-15.4,9.3-21.5s12.8-10.4,20.6-9.3c4.6.6,8.7,3,13,4.6,19.3,7.6,43.2,1.3,56.2-14.9,2.9-3.7,5.4-7.8,8.8-11a32,32,0,0,1,13.6-6.9c21.7-5.5,44.1,5.3,62.7,17.8,15.9,10.7,30.9,23.1,41.3,39.2a92.89,92.89,0,0,1,15,49.1c.5,27.6-11.1,55.4-4.5,82.2,6.6,26.5,32.4,46.8,59.7,47-37.4,9.2-75.5,15.5-113.5,21.7-11.4,1.9-22.8,3.8-34.3,3.7-5.6,0-11.4-.6-16.4-3.2s-9-7.7-9-13.3c.1-8.1,7.7-13.7,14.3-18.3,11.4-8.1,22.7-18.8,24.3-32.7,1.1-9.3-2.3-18.4-5.9-27-5.5-13.1-13.9-27.6-27.9-29.5-12.1-1.6-23.5,7-35.7,6.5-9.9-.4-18.3-6.8-24.2-14.3-4.3-5.4-7.1-12.7-13.6-16C542.5,426.3,521.2,432.3,508.7,416.1Z" transform="translate(-13.92 -26)"/><path class="cls-23" d="M728.8,365.8a37.63,37.63,0,0,0,10.7-50.4,20.28,20.28,0,0,1,1.3,1.8,37.55,37.55,0,1,1-61,43.8,5.5,5.5,0,0,0-.7-.9c-.4-.6-.8-1.3-1.2-1.9A37.63,37.63,0,0,0,728.8,365.8Z" transform="translate(-13.92 -26)"/><g class="cls-17"><path d="M609.8,335.4c2.9-3.7,5.4-7.8,8.8-11l1.8-1.5a26.36,26.36,0,0,0-7.8,4.9c-3.5,3.2-5.9,7.3-8.8,11a45.24,45.24,0,0,1-10.5,9.5A48.08,48.08,0,0,0,609.8,335.4Z" transform="translate(-13.92 -26)"/><path d="M693,574.6c-11.4,1.9-22.8,3.8-34.3,3.7-5.6,0-11.4-.6-16.4-3.2s-9-7.7-9-13.3c.1-8.1,7.7-13.6,14.3-18.3,11.4-8.1,22.7-18.8,24.3-32.7,1.1-9.2-2.3-18.4-5.9-27-5.5-13.1-13.8-27.6-27.9-29.5-12.1-1.6-23.5,7-35.7,6.5-9.9-.4-18.3-6.8-24.2-14.2-4.3-5.4-7.1-12.7-13.6-16-16.2-8-37.4-2-50-18.2-7.7-9.9-6.8-23.9-4-36,1.8-7.7,4.3-15.4,9.3-21.5a34.06,34.06,0,0,1,4.7-4.6,27.54,27.54,0,0,0-10.8,8c-5,6.1-7.5,13.8-9.3,21.5-2.8,12.2-3.7,26.1,4,36,12.6,16.2,33.8,10.2,50,18.2,6.5,3.2,9.3,10.5,13.6,16,6,7.5,14.4,13.8,24.2,14.2,12.2.5,23.6-8.1,35.7-6.5,14.1,1.9,22.5,16.4,27.9,29.5,3.6,8.6,7,17.7,5.9,27-1.7,13.9-12.9,24.6-24.3,32.7-6.6,4.7-14.2,10.3-14.3,18.3,0,5.6,4,10.7,9,13.3s10.8,3.1,16.4,3.2c11.5.1,23-1.8,34.3-3.7,38-6.3,76.1-12.5,113.5-21.7a48.87,48.87,0,0,1-6.6-.5C760.5,563.5,726.7,569,693,574.6Z" transform="translate(-13.92 -26)"/></g><ellipse class="cls-24" cx="396.78" cy="729.5" rx="16.4" ry="9"/><path class="cls-28" d="M681.7,89.1c-18.3-4.9-36.7-9.8-55.6-10.5s-38.5,2.9-53.9,13.8c-7.7,5.5-14.1,12.5-20.6,19.4a668.33,668.33,0,0,1-114.7,96.9c-16.8,11.2-34.8,21.9-54.8,24.7s-42.7-4.1-53-21.5l6.2-3.2" transform="translate(-13.92 -26)"/><path class="cls-29" d="M842.8,62.8H713.6a9.18,9.18,0,0,1-9.2-9.2V35.2a9.18,9.18,0,0,1,9.2-9.2H842.8a9.18,9.18,0,0,1,9.2,9.2V53.7A9.15,9.15,0,0,1,842.8,62.8ZM829,37.5a6.9,6.9,0,1,0,6.9,6.9,6.91,6.91,0,0,0-6.9-6.9Zm-18.5,0a6.9,6.9,0,1,0,6.9,6.9h0a6.91,6.91,0,0,0-6.9-6.9ZM842.8,109H713.6a9.18,9.18,0,0,1-9.2-9.2V81.3a9.18,9.18,0,0,1,9.2-9.2H842.8a9.18,9.18,0,0,1,9.2,9.2V99.8A9.18,9.18,0,0,1,842.8,109ZM829,83.6a6.9,6.9,0,1,0,6.9,6.9h0a6.91,6.91,0,0,0-6.9-6.9Zm-18.5,0a6.9,6.9,0,1,0,6.9,6.9h0a6.91,6.91,0,0,0-6.9-6.9Zm32.3,71.5H713.6a9.18,9.18,0,0,1-9.2-9.2V127.4a9.18,9.18,0,0,1,9.2-9.2H842.8a9.18,9.18,0,0,1,9.2,9.2v18.4a9.14,9.14,0,0,1-9.2,9.3ZM829,129.8a6.9,6.9,0,1,0,6.9,6.9h0a6.91,6.91,0,0,0-6.9-6.9Zm-18.5,0a6.9,6.9,0,1,0,6.9,6.9h0a6.91,6.91,0,0,0-6.9-6.9Z" transform="translate(-13.92 -26)"/><path class="cls-28" d="M863.7,87.6c8.3-.9,17.2-.6,24.3,3.7,7.5,4.6,11.9,13.3,13.3,22s.4,17.6-.6,26.4l-5.6,47.4c-.8,6.6-1.5,13.5.6,19.9s8.1,11.9,14.8,11.3" transform="translate(-13.92 -26)"/><path class="cls-28" d="M322.1,489.6c21.4.5,45.4,0,60.2-15.4,11.2-11.7,13.8-28.9,17.6-44.7,6.8-28.5,19.2-55.9,38-78.3s44.2-39.8,72.6-46.7c22.8-5.6,46.9-4.6,69.8-9.6s46.5-18.7,52.9-41.3" transform="translate(-13.92 -26)"/><path class="cls-30" d="M680,203.9l-57.6,21a1.19,1.19,0,0,0-.7,1.5,1,1,0,0,0,.4.5l8.6,4.8a2.56,2.56,0,0,1,1,1.3l4.9,15.6c0,.7,1.2,1,1.3.4l.7-12.2a4.78,4.78,0,0,1,1.3-2.3l31.7-23a.66.66,0,0,1,.6-.1.68.68,0,0,1,.4.8.22.22,0,0,1-.2.2l-28.2,25.7a4.78,4.78,0,0,0-1.3,2.3l-3,10.2c0,.9.6,1.4,1.3.6l6-5.3a1.09,1.09,0,0,1,1.5,0h0l11.8,11.6a1.09,1.09,0,0,0,1.5,0c.1-.1.2-.3.3-.4L681,205.4a1,1,0,0,0-.6-1.4c0-.1-.2-.1-.4-.1Z" transform="translate(-13.92 -26)"/></g><g id="shadow"><path class="cls-31" d="M235.68,80.73l-8,4.67-11.58,4.67-17,3-23.48,2.67H160.43l-15.76-2-8-2s21.55-5.33,21.87-9.33,2.89-12.67,2.89-12.67L162,63.4h14.79L189.89,62l15.56-2.29s-1.5,6.84,6.11,13.67C219.44,80.46,235.68,80.73,235.68,80.73Z" transform="translate(-13.92 -26)"/><path class="cls-32" d="M239.46,174.4h-2.19a1.17,1.17,0,0,1-1-.65L230.81,163l-.06-.13L227,152.56a1.23,1.23,0,0,0-.16-.3l-5.84-8a1.2,1.2,0,0,0-.2-.21l-6-5a1.17,1.17,0,0,0-.31-.19l-10.08-4.13a1.16,1.16,0,0,1-.24-.13L199,130.86a3.77,3.77,0,0,0-2.2-.71h0v12.06a1.26,1.26,0,0,1-.05.36l-1.79,5.91a1.16,1.16,0,0,1-2.14.24l-1.54-2.8,0-.06-5-7.83a1.21,1.21,0,0,0-.22-.25L178,130.59a1.14,1.14,0,0,0-1.12-.24l-4.5,1.49a1.16,1.16,0,0,0-.33.17l-6.51,4.82-.19.11-6.17,3-6.1,2.58a1.19,1.19,0,0,0-.61.58l-2.65,5.48a1.24,1.24,0,0,0-.08.22l-2.36,8.82a1.26,1.26,0,0,0,0,.14l-2.63,17.87,0,.11-2.88,11.94-1.67,8.14a1.09,1.09,0,0,0,0,.22v.67a1.2,1.2,0,0,1-1.17,1.22h-.24a1,1,0,0,0-1,.75l-.91,3.19a1.25,1.25,0,0,0,.16,1l2.61,3.95.11.14,2.73,3a1.16,1.16,0,0,0,.86.39H154a1.14,1.14,0,0,0,.55-.14l3.77-2.07.15-.07,2.65-1a1.21,1.21,0,0,0,.76-.95l.36-2.24s0-.08,0-.11l.21-3a1.25,1.25,0,0,0-.19-.76l-1.09-1.69a1.24,1.24,0,0,1-.18-.46l-.64-3.76a1.26,1.26,0,0,1,0-.48l1.15-5.26.64-3.33a1.23,1.23,0,0,1,.4-.7l2.5-2.16.14-.15,4-4.85.12-.13,1.55-1.4a1.15,1.15,0,0,1,.74-.3l43.67-1.22a1.17,1.17,0,0,1,1.09.7l4,8.65a1.22,1.22,0,0,0,.16.26l5.69,7.13,2.57,3.39a1.2,1.2,0,0,0,.18.19l2.23,1.89a1.15,1.15,0,0,0,.74.28h5a1.15,1.15,0,0,0,.68-.23l2.56-1.89a1.06,1.06,0,0,0-.49-1.9h0a1,1,0,0,1-.71-.41l-.29-.4a1.07,1.07,0,0,1-.2-.51l-.74-6.65a1.26,1.26,0,0,1,0-.26l.28-2.93a1.26,1.26,0,0,1,0-.14l.53-2.55a1.24,1.24,0,0,1,.21-.47l1-1.37a1,1,0,0,1,.3-.28h0A1.22,1.22,0,0,0,239.46,174.4Z" transform="translate(-13.92 -26)"/><polygon class="cls-33" points="157.29 139.9 157.29 134.65 156.2 129.9 154.63 125.53 153.31 121.53 151.38 117.4 149.45 114.78 147.57 112.78 150.5 111.38 153.23 109.62 157.29 113.78 159.94 119.28 161.27 124.03 163.07 128.78 163.68 134.53 164.76 139.28 164.76 140.9 161.75 139.9 157.29 139.9"/><polygon class="cls-34" points="200.58 140.15 195.15 139.53 193.22 137.15 193.22 132.65 193.95 123.03 193.22 120.28 192.14 116.15 190.33 112.9 188.68 107.47 190.97 108.98 193.26 109.82 196.18 111.05 198.77 113.78 200.58 119.03 200.58 123.03 200.58 129.15 200.58 138.53 200.58 140.15"/><path class="cls-35" d="M219.92,196.9,218.19,188l-1-7.87-.3-4.28-2.36-2.72-1.33-2.87-1.57-1h-3.44l-2.83,1-3.5,1.25-3.5.63-7.36-.37-8.32-1.5-4-1H171.2v6.13L163,185.52l-1.52,5.5-.72,5.29.72,7v4.38l10.32,18.5,4.58,7.75-4.82,5.75-3,2.88-13.63-18.25v31.89l-2.53,5.74-1.13,12.17v5.83l-1,12.5v5.67l-1.45,7.33-2.09,5.33V321.4l1.29,2.67,4.18,1.83,8.36,2.83h6.91l8.68-2.5,3.22-1.83,3.94-4.33.88-33.33,1.61-15.5s.8,16.17.8,16.67-2.09,32.67-2.09,32.67l5.67,4,9.12,1,5.63-.5,6.75-2,5.79-2,2.41-3.83V196.9Z" transform="translate(-13.92 -26)"/><polygon class="cls-36" points="146.31 182.65 142.69 184.4 137.27 184.4 130.39 183.53 128.59 183.53 131.6 187.9 154.75 217.4 162.47 207.9 147.57 181.65 146.31 182.65"/><path class="cls-37" d="M275.09,138.34l-7.19,2.22a1.78,1.78,0,0,0-1.22,1.53l-2.76,27.37a1.8,1.8,0,0,0,1.07,1.85l6.2,2.58a2.65,2.65,0,0,0,3.62-2.32l2.5-31.37A1.75,1.75,0,0,0,275.09,138.34Z" transform="translate(-13.92 -26)"/><path class="cls-38" d="M274.15,138.65,266.32,141a1.84,1.84,0,0,0-1.29,1.58l-2.74,26.3a1.85,1.85,0,0,0,1.13,1.92l7.2,2.9a1.8,1.8,0,0,0,2.46-1.56L275.73,140A1.25,1.25,0,0,0,274.15,138.65Z" transform="translate(-13.92 -26)"/><polygon class="cls-39" points="254.33 145.71 252.27 144.68 252.35 143.66 254.71 144.52 254.33 145.71"/><polygon class="cls-40" points="260.79 113.78 252.43 116.2 249.46 141.7 258.26 144.57 260.79 113.78"/><image width="78" height="100" transform="matrix(-0.08, -0.01, -0.01, 0.08, 259.93, 115.95)" xlink:href="../../../xampp/htdocs/rapid/img/mag_logo_sp.png"/><text class="cls-41" transform="matrix(-0.96, -0.11, -0.11, 0.99, 257.2, 125.34)"><tspan class="cls-42">U</tspan><tspan class="cls-43" x="0.11" y="2.51">D</tspan><tspan class="cls-44" x="0.19" y="5.1">H</tspan><tspan class="cls-45" x="0.47" y="7.57">Y</tspan><tspan class="cls-46" x="0.47" y="9.75">O</tspan><tspan class="cls-47" x="0.47" y="11.98">D</tspan><tspan class="cls-42" x="0.47" y="14.41">A</tspan><tspan x="0.47" y="17">Y</tspan></text><polygon class="cls-48" points="268.23 132.9 263.65 132.9 258.3 132.9 255.93 134.84 255.81 137.65 255.09 140.78 255.13 143.55 255.51 147.27 251.83 144.15 252.27 140.82 252.27 139.48 252.27 138.28 251.55 136.44 249.24 134.61 248.8 138.78 248.37 142.69 248.17 144.68 245.32 147.15 237.36 147.15 229.88 148.4 225.96 150.78 224.09 155.4 224.09 161.24 224.58 165.59 228.44 166.9 240.01 162.15 250.87 156.65 256.17 155.65 260.51 154.65 266.54 153.9 268.23 151.9 270.88 147.65 270.88 142.15 270.88 136.9 268.23 132.9"/><polygon class="cls-49" points="194.25 65.46 194.25 72.9 194.25 81.4 194.25 87.65 193.52 94.4 191.66 98.09 189.06 101.53 186.47 104.15 184.72 104.62 182.85 104.15 182.85 107.96 182.85 116.4 180.2 125.15 172.24 111.9 163.56 104.15 160.78 104.71 155.52 99.4 153.27 95.3 151.66 91.4 151.66 87.9 152.52 76.73 152.62 75.4 153.59 69.73 161.95 69.7 194.25 65.46"/><polygon class="cls-50" points="151.98 76.28 151.26 74.28 149.69 72.71 147.82 71.59 144.69 72.03 142.57 72.84 140.83 76.28 141.25 80.59 143.24 85.34 145.23 88.4 148.91 89.09 151.66 88.21 152.55 76.34 151.98 76.28"/><polygon class="cls-51" points="194.25 69.73 196.36 68.53 198.89 69.73 200.58 72.4 200.58 76.53 199.74 81.65 198.77 84.4 196.24 87.78 194.25 87.65 194.25 69.73"/><polygon class="cls-52" points="199.25 50.52 191.41 53.52 178.99 56.65 166.69 58.02 156.93 58.02 145.23 58.02 142.22 58.88 144.99 52.43 160.54 53.02 174.89 51.73 187.92 48.77 195.75 45.5 200 49.18 201.69 50.15 199.25 50.52"/><path class="cls-53" d="M240.34,361.9l-4-4.5-5.95-1.33s-7.56-.33-8,0-5.79-2-5.79-2l-1.45-4.5V328.73l1-8.33L208.64,324,200,326.23l-9-1.58-5-4.25,1.29,10.67,1.13,12.17-.16,12.67-.48,5.17-1,3.17,8.68,1.67,6.43,1.83,9.33,2.17h10l10.29-.83,4.18-1.5,3.54-2.17,2.57-1.67Z" transform="translate(-13.92 -26)"/><polygon class="cls-54" points="165.81 299.57 165.81 306.23 163.72 314.23 163.72 318.4 163.72 327.57 167.42 333.07 173.85 335.07 180.48 339.69 181.24 343.9 180.6 348.57 174.81 350.57 167.58 350.57 159.86 350.57 154.39 350.57 148.6 348.4 139.92 343.9 136.54 340.4 136.54 331.23 138.47 326.73 138.8 322.57 138.47 315.23 136.54 307.23 135.81 298.8 145.39 302.73 153.59 302.73 160.61 300.71 165.49 298.4 165.81 299.57"/><polygon class="cls-55" points="226.65 338.52 226.65 342.65 221.92 345.77 213 347.77 202.27 347.77 191.53 346.52 185.26 344.77 181.11 343.15 181.56 339.9 187.06 341.46 196.48 343.9 209.99 343.9 217.58 343.07 221.35 341.71 226.65 338.52"/><path class="cls-55" d="M196.29,373.77l-.72,2.79L190,380H171.81l-8.44-2.12-6.27-4.12s-3.74-2.37-4.22-2.75-3.15-3-3.15-3l.74-2.87,3.62,3.13,4.58,4.13,8.38,3.69,8.15.48,9.29-.54,3.62.54,5.79-1.78,1.93-2.2Z" transform="translate(-13.92 -26)"/><polygon class="cls-56" points="185.5 84.15 190.57 87.78 192.5 90.65 189.72 91.28 179.11 91.28 177.43 90.15 175.62 91.28 166.45 91.28 163.07 90.65 164.76 88.28 170.67 84.15 171.64 84.15 173.81 86.15 176.82 87.71 179.47 87.78 182.01 86.15 183.33 84.15 185.5 84.15"/><polygon class="cls-57" points="200.58 174.57 197.33 184.4 197 185.4 194.25 195.23 192.02 199.53 165.81 199.53 160.5 197.9 152.94 171.73 202.15 172.73 200.58 174.57"/><polygon class="cls-57" points="195.72 184.4 183.98 185.63 167.58 185.01 156.16 182.88 157.58 187.79 165.49 189.73 182.69 189.73 194.25 188.57 196.68 184.4 195.72 184.4"/><ellipse class="cls-57" cx="191.4" cy="177.35" rx="2.85" ry="2.95"/><ellipse class="cls-57" cx="177.03" cy="177.94" rx="2.29" ry="2.37"/><ellipse class="cls-57" cx="163.2" cy="177.94" rx="2.29" ry="2.37"/><path class="cls-58" d="M207,164.18l1.08-.05,1,1.2,2.32.51,1.93-.09,1.32-.19-.63,2.16-.52,1.78-1.65.83-1.5,2.45-1.77.09-.75-2-.08-1.75-1.21-4Zm2.08,5.91,1.75-.08,1-2.55-2.86-.49Z" transform="translate(-13.92 -26)"/><path class="cls-58" d="M170.66,165.72l1-.37,1.51.55,2.16.09,1.82-.66,1.21-.57v4.11L177,170.15l-.76,2.79-1.67.61-1.27-1.66-.56-1.65-2.27-3.48Zm3.63,5,1.65-.6.22-2.73-2.87.39Z" transform="translate(-13.92 -26)"/><polygon class="cls-59" points="259.9 134.34 257.24 135.09 256.52 136.22 256.52 138.09 259.05 138.09 261.7 138.09 263.51 138.09 260.02 138.97 256.52 139.59 255.8 141.59 255.8 142.22 255.8 142.97 262.43 143.84 256.76 144.47 256.64 145.34 256.52 146.84 257 147.47 258.93 148.34 262.19 148.34 264.36 149.09 260.08 149.09 257 149.09 255.8 148.22 255.31 146.59 255.31 145.22 255.07 142.97 254.95 141.09 254.95 139.34 255.68 136.84 255.68 135.34 256.76 134.34 259.9 134.34"/><polygon class="cls-60" points="261.72 153.03 259.67 153.03 257.74 153.03 256.89 151.4 256.89 149.28 256.17 151.15 256.17 153.03 255.57 154.53 252.19 155.4 244.96 158.4 236.15 162.03 229.76 164.28 224.58 165.59 226.26 167.65 251.47 157.53 256.17 155.65 258.34 154.53 261.72 153.03"/><polygon class="cls-57" points="226.26 148.4 223.97 149.28 222.28 151.4 221.2 155.15 221.2 151.78 222.41 148.4 224.94 147.65 226.26 148.4"/><path class="cls-61" d="M234.15,174.4l-1.69,1.88-1,2-1,2.88-.72,2.25V186a15.4,15.4,0,0,1,0,2.38,9.52,9.52,0,0,0,0,1.88l1.09,1.25-3.42-2v-2.92l1.61-4.58,1-3.42,1.29-2.08Z" transform="translate(-13.92 -26)"/><path class="cls-61" d="M202.44,137.4l2.05,8,1,2.75L203.16,147s-3-.87-3.14-1.37a11.48,11.48,0,0,0-1.21-2L196,151.27l-.84,3.63-3.62-3.75-3.14-3.25-2.77-2.5-2.53,3.5-1.69,3.25,4.1-3.5,9.41,7.88,4.34-8.5,7.11,1.5Z" transform="translate(-13.92 -26)"/><polygon class="cls-61" points="142.66 179.73 138.15 179.73 131.96 179.73 130.92 178.32 133.49 179.03 139.44 179.03 143.7 178.32 142.66 179.73"/><polygon class="cls-61" points="147 172.65 143.22 173.98 137.99 174.57 132.36 174.07 127.38 173.61 123.52 172.65 124.48 171.65 129.63 172.73 133.81 173.11 138.88 173.11 144.5 171.65 147.8 170.57 147 172.65"/><polygon class="cls-62" points="135.66 185.4 138.96 193.53 144.5 201.65 152.58 212.53 154.15 215.15 137.31 195.03 129.79 185.4 135.66 185.4"/><polygon class="cls-63" points="165 198.28 164.04 201.15 162.95 206.78 160.66 210.78 155.6 215.78 154.15 216.78 151.26 216.78 154.15 217.78 158.85 215.15 163.68 210.15 165.85 205.03 165.13 197.65 165 198.28"/><polygon class="cls-64" points="197 155.15 191.69 156.96 182.37 158.46 172.88 156.81 168.06 153.9 173.37 155.15 179.64 156.18 187.35 155.15 192.98 155.15 197 155.15"/><polygon class="cls-65" points="156 280.57 147.32 284.9 140.08 284.9 136.06 281.57 134.78 279.07 136.06 270.4 136.38 277.65 139.76 280.73 145.39 281.9 149.41 281.9 156 280.57"/><polygon class="cls-66" points="163.4 295.07 160.82 297.9 156 300.07 150.69 300.07 144.1 298.9 140.24 297.57 136.22 295.9 134.78 291.07 134.78 297.57 137.35 300.9 145.39 302.23 156 302.23 163.4 299.73 166.93 296.65 169.19 291.07 170.95 259.9 170.95 243.07 169.51 253.57 168.06 262.9 167.58 272.65 165.85 290.07 163.4 295.07"/><polygon class="cls-67" points="201.74 293.07 194.19 296.07 188.72 297.23 182.77 297.23 178.75 295.15 175.21 291.23 173.77 282.07 173.77 276.57 173.77 269.73 173.77 251.9 173.77 243.4 173.77 236.57 170.39 290.4 170.39 294.23 172.32 297.23 175.7 298.23 181.97 299.73 186.07 299.73 193.22 299.73 199.49 297.07 201.74 293.07"/><polygon class="cls-68" points="177.06 298.9 171.92 296.73 174.49 332.57 177.06 325.73 177.06 298.9"/><polygon class="cls-69" points="140.3 301.39 135.81 298.9 135.81 337.73 138.96 329.73 140.3 301.39"/><polygon class="cls-70" points="180.56 76.65 181.41 79.9 182.53 82.53 181.54 84.78 179.23 86.53 177.18 86.53 175.86 85.4 173.81 83.9 174.89 86.53 176.94 87.9 180.92 87.15 183.21 84.65 183.21 81.28 180.56 76.65"/><polygon class="cls-57" points="152.94 89.4 154.27 93.53 157.41 98.28 160.78 101.15 164.76 103.65 162.71 104.53 158.85 102.65 155.72 98.9 152.94 94.53 152.94 89.4"/><path class="cls-61" d="M164.33,157.9v6s-.36,5.75,0,6.38-1.33,6.38-1.33,6.38L161.72,183v3.19l2.66-5,4.29-5.87,1.33-1.62-4.14,3.75a24.18,24.18,0,0,1-2,2.5c.12-.37,1.85-4.5,2-5.5s1-10.5,1-10.5Z" transform="translate(-13.92 -26)"/><path class="cls-61" d="M227.48,187.15a6.15,6.15,0,0,1-2.09-2.25c-.08-.5-1.45-3.08-1.93-4.5a21.07,21.07,0,0,0-1.13-3c-.4-.75-2.33-4.5-2.33-4.5s-1.29,3.08-1.29,3.33,1.77,4,2,4.92,1.45,4.75,1.45,4.75l1.78,2.2Z" transform="translate(-13.92 -26)"/><polygon class="cls-71" points="171.52 39.15 160.66 40.65 151.94 43.15 151.26 49.4 147.8 58.4 143.7 62.4 137.31 67.15 129.79 67.15 141.97 59.4 145.23 54.4 149.33 40.4 171.52 39.15"/><polygon class="cls-71" points="190.09 64.15 186.23 59.65 183.21 53.15 181.16 47.4 178.51 53.15 178.51 61.9 180.02 66.15 190.09 64.15"/><polygon class="cls-72" points="204.76 60.65 199.25 56.77 193.95 53.15 190.09 47.4 187.92 42.15 186.23 37.15 183.21 38.15 184.3 44.4 191.05 56.77 195.88 62.9 204.76 60.65"/><path class="cls-73" d="M204.18,135.15l1.39,2.63,1.93,3.06,1,3.81.72,3.13v11.56l-.9,2.94-1,2.31.66-3.06.78-4.12-.18-4.12v-3.41l-.18-2.09-.6-3a11.37,11.37,0,0,1-1.15-2.56,23.08,23.08,0,0,0-1.93-3.81l-1.87-3.62Z" transform="translate(-13.92 -26)"/><polygon class="cls-73" points="157.23 137.78 157.83 137.78 157.83 134.84 156.74 132.21 155.24 127.03 154.03 122.9 152.28 118.71 150.53 116.4 149.51 114.46 148.78 113.09 147.8 112.78 147.52 113.46 148.54 114.65 149.33 116.09 151.08 118.71 151.94 120.09 154.09 126.84 155.3 131.4 156.38 134.09 157.23 137.78"/><polygon class="cls-59" points="249.82 135.07 249.82 137.15 249.02 139.57 248.37 143.94 249.24 134.61 249.82 135.07"/></g></svg>